<?xml version="1.0" standalone="no"?>
<!DOCTYPE svg PUBLIC "-//W3C//DTD SVG 20010904//EN"
 "http://www.w3.org/TR/2001/REC-SVG-20010904/DTD/svg10.dtd">
<svg version="1.0" xmlns="http://www.w3.org/2000/svg"
 width="2566.000000pt" height="2413.000000pt" viewBox="0 0 2566.000000 2413.000000"
 preserveAspectRatio="xMidYMid meet">

<g transform="translate(0.000000,2413.000000) scale(0.100000,-0.100000)"
fill="#000000" stroke="none">
<path d="M0 20891 l0 -3239 113 58 c136 70 199 90 290 90 93 0 140 16 196 65
65 59 119 84 206 95 117 15 204 69 221 137 9 33 -27 82 -104 144 -35 28 -67
61 -72 75 -18 46 19 103 99 155 90 58 124 32 137 -101 9 -93 31 -120 97 -120
72 0 155 49 266 157 53 52 107 97 120 100 14 3 35 -1 51 -11 16 -9 40 -16 55
-16 26 0 201 64 218 79 4 4 -39 13 -96 19 -135 15 -157 23 -157 60 0 29 74
192 111 244 28 38 55 36 121 -12 69 -49 86 -85 70 -146 -17 -65 -16 -74 14
-74 38 0 86 55 107 124 25 78 45 96 106 96 103 0 141 -32 176 -145 23 -77 47
-115 73 -115 20 0 50 56 87 161 55 161 83 203 158 240 34 17 109 62 167 100
58 37 116 70 130 74 19 5 38 -3 80 -33 66 -47 117 -63 177 -55 54 7 78 -11 87
-67 10 -61 42 -80 136 -80 149 0 460 65 579 120 68 32 121 74 121 97 0 24 -45
41 -129 47 -126 10 -179 40 -136 76 17 14 304 73 432 89 54 7 111 7 165 1 46
-6 223 -19 393 -30 372 -25 467 -35 563 -61 86 -23 105 -32 313 -150 179 -102
277 -147 404 -184 155 -45 495 -87 580 -71 26 5 55 24 92 58 50 48 57 51 101
50 26 0 94 -12 151 -26 57 -14 149 -30 205 -36 205 -22 236 -29 331 -76 100
-49 153 -56 260 -35 71 14 92 0 119 -75 30 -81 73 -133 177 -209 59 -43 96
-78 114 -109 30 -51 27 -66 -15 -66 -26 0 -51 19 -102 79 -15 17 -30 21 -83
21 -36 0 -82 -7 -102 -15 -33 -14 -35 -18 -29 -47 8 -42 55 -113 110 -167 45
-44 47 -45 129 -50 100 -7 151 -35 193 -106 23 -40 26 -54 21 -100 -8 -80 6
-88 219 -120 124 -19 178 -43 206 -91 17 -29 22 -57 48 -284 20 -176 68 -320
141 -427 18 -26 87 -104 154 -173 149 -154 187 -199 460 -530 581 -703 819
-957 970 -1030 74 -36 115 -40 218 -20 51 10 139 23 197 29 132 13 198 32 281
82 37 22 73 37 81 34 9 -4 35 -63 63 -143 61 -180 144 -351 198 -409 23 -25
65 -56 92 -68 75 -34 89 -53 81 -117 -10 -77 15 -242 88 -575 43 -200 69 -299
81 -313 54 -60 133 19 171 172 25 100 30 430 10 604 -20 175 -42 256 -99 364
-25 47 -48 101 -51 121 -19 108 -436 584 -542 619 -55 19 -98 48 -125 89 -33
48 -33 147 0 210 75 144 234 231 424 231 88 0 120 59 146 277 14 111 2 146
-79 239 -28 32 -53 68 -56 81 -10 37 1 128 30 248 25 107 43 218 86 535 30
213 100 599 150 815 48 207 82 311 207 630 49 127 125 325 167 440 355 961
472 1156 1051 1744 250 254 400 390 634 575 95 76 221 179 280 230 144 124
171 144 233 168 29 11 71 34 93 52 52 43 198 130 415 248 239 130 370 195 535
263 77 31 229 95 337 141 429 183 625 236 1133 304 127 17 236 33 244 36 9 3
-33 52 -116 137 -81 83 -137 150 -152 181 l-24 48 -92 -7 -92 -7 -27 33 c-15
17 -38 54 -52 81 l-25 50 -52 -67 c-74 -97 -148 -129 -195 -85 -23 22 -24 30
-22 120 3 161 -72 390 -130 390 -31 0 -44 -30 -56 -133 -34 -299 -98 -288
-149 26 l-18 107 -8083 0 -8084 0 0 -3239z m8892 1839 c39 -43 198 -298 198
-317 0 -4 -37 -45 -82 -90 l-81 -82 -47 39 c-86 72 -150 237 -150 387 0 82 10
110 43 122 34 13 73 -7 119 -59z m-2612 -880 c11 -11 23 -32 26 -47 12 -47
-15 -543 -36 -666 -10 -63 -42 -184 -69 -268 -27 -85 -55 -183 -61 -219 -20
-106 -38 -144 -99 -214 -42 -47 -62 -79 -70 -114 -24 -97 -24 -97 -58 -100
-43 -4 -162 57 -224 115 -71 66 -113 156 -113 242 0 43 5 77 16 97 30 55 40
156 28 262 -6 51 -10 95 -8 97 2 2 55 -3 118 -11 351 -43 409 4 348 289 -31
150 -29 218 10 290 17 32 34 79 37 105 12 96 16 111 36 136 26 33 89 36 119 6z
m2636 -831 c93 -24 226 -84 271 -123 73 -62 63 -159 -24 -236 -76 -67 -155
-75 -223 -25 -44 33 -76 31 -124 -5 -56 -42 -76 -39 -129 20 -92 102 -113 198
-63 284 60 102 139 125 292 85z m-3870 -92 c42 -27 74 -77 74 -113 0 -63 -64
-124 -129 -124 -75 0 -131 114 -100 203 23 69 84 82 155 34z m2439 -81 c139
-64 268 -272 210 -336 -27 -30 -59 -24 -110 20 -189 163 -352 -34 -275 -335
28 -109 77 -204 165 -320 96 -127 102 -147 80 -251 -10 -43 -22 -87 -27 -96
-22 -44 -113 -62 -168 -33 -40 21 -60 63 -60 128 0 30 -6 62 -14 72 -14 19
-15 19 -53 1 -21 -9 -59 -31 -85 -47 -66 -43 -106 -52 -135 -33 -49 32 -61
103 -73 434 -11 289 -18 356 -51 471 -29 101 -22 140 36 195 35 34 57 45 126
63 87 23 126 35 219 70 75 28 152 27 215 -3z m-5295 -128 c92 -55 153 -156
136 -223 -6 -22 -12 -25 -49 -25 -65 0 -171 74 -227 158 -37 56 -38 75 -4 101
38 30 81 26 144 -11z m515 -288 c51 -106 58 -128 58 -178 -1 -68 -49 -224 -93
-300 -32 -55 -43 -62 -125 -81 -64 -15 -146 -53 -265 -125 -52 -31 -106 -56
-121 -56 -29 0 -58 20 -136 92 -29 27 -73 58 -98 69 -44 19 -50 20 -113 5 -37
-8 -130 -24 -207 -36 -77 -12 -174 -33 -217 -46 -130 -41 -218 -117 -218 -188
0 -50 -40 -109 -82 -123 -65 -21 -234 19 -296 72 -16 13 -32 41 -39 67 -6 24
-35 74 -62 112 -46 62 -51 74 -51 120 0 28 13 105 30 172 16 66 34 165 40 220
16 141 16 141 58 163 44 22 166 51 217 51 57 0 90 -24 240 -169 154 -150 192
-181 225 -181 23 0 81 53 134 124 55 73 70 76 426 76 238 0 332 -4 384 -15
102 -21 116 -9 191 164 26 61 51 111 54 111 4 0 34 -54 66 -120z m1234 74 c25
-32 28 -90 5 -122 -35 -50 -70 -4 -60 81 8 75 21 84 55 41z m2627 -165 c27
-54 23 -79 -12 -79 -31 0 -44 27 -44 96 0 50 2 55 16 43 8 -7 26 -34 40 -60z
m-6116 -148 c14 -28 13 -64 -4 -87 -33 -43 -83 33 -52 80 20 31 41 33 56 7z
m3500 -77 c13 -33 13 -96 -1 -131 -14 -38 -65 -90 -114 -116 -32 -17 -58 -22
-126 -22 -58 0 -91 4 -102 14 -27 22 -3 47 67 71 71 23 146 82 173 134 37 74
85 98 103 50z m-3610 -347 c56 -37 75 -80 73 -167 -2 -125 -83 -340 -128 -340
-19 0 -18 -2 -19 160 -1 120 -4 140 -25 184 -18 39 -22 59 -17 94 12 90 51
113 116 69z m3845 -47 c15 -16 16 -24 6 -52 -27 -78 -129 -178 -180 -178 -59
0 -183 79 -202 127 -21 56 33 91 171 108 146 19 184 18 205 -5z m5019 -239
c57 -58 56 -70 -9 -130 -98 -91 -169 -17 -105 109 43 86 49 87 114 21z m-1276
-75 c38 -20 158 -148 205 -218 67 -102 99 -209 65 -220 -67 -23 -364 114 -389
179 -24 60 6 201 53 250 25 27 30 28 66 9z m-4199 -129 c15 -19 -16 -46 -65
-57 -72 -17 -153 35 -92 59 36 15 144 13 157 -2z m6230 -2402 c64 -32 121 -86
121 -115 0 -13 -7 -32 -17 -42 -21 -23 -99 -25 -132 -2 -43 30 -65 119 -41
165 13 24 11 24 69 -6z m861 -928 c41 -14 51 -48 24 -78 -47 -52 -268 3 -224
56 27 32 135 44 200 22z"/>
<path d="M876 19735 c-26 -26 -41 -91 -28 -120 15 -33 43 -32 81 4 34 32 39
56 15 89 -24 35 -50 45 -68 27z"/>
<path d="M20986 21298 c-20 -28 -20 -41 -1 -77 19 -38 50 -45 76 -18 22 24 21
75 -2 103 -17 21 -56 17 -73 -8z"/>
<path d="M22006 21148 c-3 -29 -8 -91 -11 -138 -6 -87 -70 -429 -84 -443 -8
-8 -223 141 -336 233 -134 109 -273 167 -424 177 -106 7 -160 -7 -210 -53 -26
-23 -54 -37 -86 -43 -57 -11 -99 -48 -131 -116 -36 -76 -32 -117 22 -210 25
-44 73 -134 106 -200 65 -129 109 -185 145 -185 25 0 31 -6 71 -68 16 -24 78
-100 138 -169 176 -202 254 -318 254 -377 0 -60 44 -146 145 -281 25 -33 52
-83 60 -112 13 -42 27 -62 72 -100 101 -87 132 -122 143 -161 12 -47 30 -64
93 -91 32 -14 47 -26 47 -39 0 -42 -96 -142 -137 -142 -20 0 -43 30 -43 57 0
57 -140 137 -176 101 -14 -13 -40 -112 -70 -260 -16 -84 -48 -141 -80 -146
-11 -2 -37 11 -58 28 -54 42 -84 39 -148 -14 -29 -25 -77 -62 -107 -83 -53
-38 -54 -38 -165 -41 -61 -2 -117 -8 -123 -14 -25 -21 -13 -75 41 -186 64
-129 86 -197 86 -262 0 -64 -19 -86 -84 -100 -125 -26 -235 -169 -220 -283 8
-53 -16 -105 -71 -157 -40 -37 -74 -101 -75 -137 0 -40 39 -126 105 -233 36
-57 65 -116 65 -130 0 -16 -11 -34 -33 -52 -46 -36 -65 -110 -78 -295 -21
-329 -43 -385 -196 -498 -143 -106 -201 -173 -188 -216 11 -35 -30 -67 -120
-94 -165 -50 -437 -89 -685 -100 -433 -18 -798 -62 -860 -103 -18 -12 -45 -16
-100 -15 -395 8 -443 4 -690 -53 -200 -46 -318 -93 -395 -154 -55 -44 -190
-110 -315 -155 -182 -64 -213 -98 -212 -230 0 -91 21 -169 87 -324 30 -69 69
-179 88 -243 52 -177 97 -233 188 -233 38 0 56 7 91 33 68 51 142 83 231 99
179 32 230 46 285 75 49 26 64 29 109 25 64 -7 179 16 363 72 228 69 448 104
774 121 214 11 437 1 518 -24 26 -7 60 -23 76 -35 48 -34 122 -44 277 -38 276
10 458 85 520 212 45 91 44 340 0 384 -8 8 -34 22 -57 31 -38 14 -43 19 -46
50 -3 38 35 150 73 216 29 50 111 125 174 161 292 165 511 328 511 379 0 11
-18 43 -40 73 -91 121 -26 210 259 350 143 70 170 74 245 32 53 -30 97 -45
157 -55 22 -4 54 -22 81 -46 119 -104 122 -249 17 -657 -56 -217 -69 -304 -69
-474 0 -214 27 -353 117 -594 60 -162 117 -359 149 -518 23 -113 27 -157 27
-307 1 -255 -41 -582 -98 -770 -52 -172 -65 -234 -75 -353 -5 -67 -17 -149
-25 -182 -21 -80 -70 -183 -103 -218 l-27 -28 -103 7 -104 7 -46 -50 c-69 -73
-96 -87 -175 -93 -94 -7 -100 -15 -132 -205 -46 -270 -58 -292 -172 -305 -89
-9 -144 -39 -219 -115 -81 -83 -133 -185 -144 -287 -10 -87 -39 -169 -91 -258
-59 -102 -74 -167 -61 -270 12 -103 2 -186 -33 -271 -55 -136 -124 -211 -226
-249 -68 -25 -81 -44 -66 -102 13 -51 5 -64 -39 -71 -52 -9 -126 10 -176 44
-54 36 -69 36 -112 -1 -44 -39 -64 -100 -75 -224 -6 -75 -13 -104 -30 -126
-34 -47 -42 -78 -51 -193 -4 -60 -12 -113 -18 -119 -12 -12 -54 16 -172 112
-88 71 -112 80 -141 54 -49 -44 -74 -129 -88 -294 -11 -127 -26 -168 -103
-284 -80 -119 -91 -151 -84 -251 5 -57 3 -84 -6 -95 -7 -9 -51 -41 -98 -72
-122 -81 -312 -260 -388 -366 -38 -54 -57 -136 -43 -188 14 -50 48 -84 83 -84
42 0 62 14 94 65 16 25 33 45 38 45 4 0 6 -29 4 -64 -3 -56 -10 -73 -43 -122
l-40 -58 0 -105 c0 -59 -4 -112 -8 -119 -10 -15 -90 -16 -120 -1 -12 6 -51 42
-87 80 -74 78 -99 85 -148 44 -39 -33 -81 -129 -88 -206 -8 -78 -18 -99 -47
-99 -34 0 -82 56 -121 141 -37 82 -94 149 -127 149 -28 0 -33 -22 -19 -80 29
-123 -40 -144 -133 -41 -46 51 -59 77 -91 182 -22 74 -32 92 -70 127 -24 22
-68 53 -98 68 -120 60 -168 109 -168 169 0 14 -4 25 -9 25 -5 0 -30 -24 -56
-52 -43 -49 -46 -51 -42 -25 7 46 -13 94 -65 153 -62 71 -73 112 -59 217 29
217 3 254 -115 164 -77 -59 -120 -152 -130 -280 -7 -98 11 -134 82 -157 60
-19 98 -45 147 -99 47 -52 69 -96 65 -129 -4 -35 -73 -70 -166 -84 -94 -14
-128 -35 -142 -90 -15 -64 -42 -111 -72 -127 -24 -14 -31 -13 -92 12 -92 37
-129 36 -172 -7 -30 -30 -34 -40 -34 -88 0 -29 4 -69 9 -89 14 -59 6 -63 -95
-48 -150 21 -192 0 -229 -114 -36 -113 -79 -79 -94 74 -11 110 -27 159 -74
228 -42 61 -61 113 -75 205 -14 93 -70 204 -137 274 -30 30 -59 52 -67 50 -24
-8 -39 -58 -45 -151 -7 -114 -23 -160 -55 -155 -17 2 -33 23 -63 81 -22 43
-74 127 -116 185 -118 165 -174 289 -229 511 -12 46 -30 102 -41 124 -75 147
-301 450 -527 706 -119 136 -160 206 -173 299 -13 93 -25 124 -61 160 -65 67
-110 52 -226 -75 -75 -83 -135 -123 -183 -123 -39 0 -122 44 -156 84 -57 64
-66 90 -59 175 6 71 4 80 -24 141 -17 36 -43 110 -57 164 -40 160 -88 241
-277 471 -115 139 -175 229 -217 323 -17 37 -39 87 -50 112 -32 71 -70 120
-108 140 -42 22 -122 103 -177 180 -21 30 -84 108 -139 173 -231 272 -254 311
-274 444 -13 86 -41 185 -70 241 l-17 33 -205 -208 c-207 -210 -332 -351 -395
-444 -48 -72 -48 -124 2 -178 37 -42 67 -55 149 -66 99 -13 226 -105 240 -172
18 -89 53 -211 85 -303 51 -141 78 -274 89 -429 10 -145 21 -173 81 -221 50
-40 51 -55 9 -227 -39 -156 -43 -241 -14 -273 18 -20 26 -21 100 -15 l81 6 13
-27 c6 -15 21 -96 31 -180 45 -349 129 -692 196 -794 25 -38 44 -133 44 -221
0 -87 33 -194 94 -310 88 -166 119 -258 120 -354 1 -67 -3 -89 -26 -138 -55
-118 -196 -267 -339 -361 -182 -118 -433 -235 -552 -257 -90 -16 -123 -33
-151 -78 -24 -38 -68 -61 -117 -61 -8 0 -57 -20 -107 -44 -114 -56 -183 -77
-375 -117 -245 -50 -486 -139 -630 -231 -66 -42 -77 -68 -70 -156 5 -64 3 -76
-25 -135 -36 -77 -134 -181 -232 -247 -122 -82 -191 -177 -364 -502 -121 -230
-173 -317 -212 -358 -31 -33 -54 -91 -54 -136 0 -30 -8 -43 -44 -78 -54 -51
-79 -88 -201 -301 -108 -189 -137 -229 -207 -296 -28 -26 -48 -54 -48 -66 0
-42 -11 -53 -50 -53 -30 0 -44 -6 -63 -29 -29 -35 -51 -118 -44 -164 3 -17 7
-41 9 -52 2 -15 -3 -21 -23 -23 -40 -5 -57 -30 -69 -106 -20 -128 -108 -316
-147 -316 -69 0 -1025 601 -1465 921 -59 43 -208 158 -330 256 -123 98 -293
233 -378 299 -85 67 -191 154 -235 194 -217 197 -983 719 -1146 781 -32 12
-70 39 -102 72 -101 102 -392 275 -572 340 -149 55 -196 78 -326 166 -145 96
-221 170 -318 306 l-84 118 36 286 c63 490 77 759 77 1491 0 493 -8 698 -31
785 -6 22 -35 94 -66 160 -83 180 -133 336 -133 416 0 59 5 77 49 165 82 169
268 459 367 574 56 65 119 161 162 245 42 83 116 185 202 280 158 174 237 293
400 604 105 202 175 325 277 487 70 111 111 194 128 260 18 68 36 90 92 115
52 22 55 31 51 179 l-3 115 25 0 c19 0 29 -9 43 -37 21 -47 52 -51 68 -10 8
19 8 61 0 152 -21 240 -13 299 37 264 12 -8 22 -24 22 -34 0 -22 32 -43 54
-34 26 10 28 60 7 166 -34 174 -35 191 -13 218 19 23 20 23 45 7 16 -10 34
-39 48 -77 12 -33 25 -60 29 -60 27 0 69 89 80 173 6 37 19 73 34 96 14 20 38
53 52 73 53 75 45 163 -22 237 -25 28 -50 65 -55 83 -14 48 -1 123 36 209 46
105 69 195 106 404 17 99 42 212 55 251 38 111 27 196 -22 180 -44 -14 -184
-230 -184 -284 0 -38 -27 -91 -73 -142 -35 -38 -47 -63 -60 -117 -10 -40 -64
-164 -131 -303 -63 -129 -134 -280 -159 -335 -159 -359 -1104 -2258 -1231
-2474 -43 -74 -91 -137 -165 -215 -181 -194 -440 -527 -650 -836 -144 -212
-200 -270 -259 -270 -19 0 -142 77 -142 89 0 10 75 97 203 237 66 71 147 166
180 212 34 46 177 237 317 425 336 450 442 612 537 815 86 184 133 360 152
572 6 63 20 151 30 195 41 168 123 364 160 385 29 15 44 106 39 225 -5 100
-20 155 -44 155 -20 0 -34 58 -34 140 0 67 4 82 26 116 35 51 44 79 99 299 25
103 60 226 77 274 60 170 151 321 194 321 17 0 18 6 -5 -98 -11 -48 -31 -173
-45 -277 -30 -220 -40 -261 -66 -275 -29 -16 -44 -83 -30 -138 23 -92 91 -190
124 -179 20 6 18 56 -2 85 -30 41 -36 92 -18 135 8 21 19 37 25 37 5 0 17 -21
27 -46 18 -48 50 -94 64 -94 5 0 25 14 45 31 38 34 65 104 65 173 1 65 31 119
92 164 34 25 60 53 67 74 7 18 17 43 22 56 5 12 24 31 42 42 47 28 58 58 68
183 11 139 26 195 100 375 79 192 96 239 108 287 8 30 22 48 58 75 48 36 66
68 78 142 4 24 22 56 50 89 45 52 58 81 70 152 3 20 24 71 46 113 50 94 69
179 69 310 0 56 5 115 11 132 24 70 63 36 79 -69 32 -206 100 -221 155 -33 17
56 40 110 56 130 18 22 30 53 34 82 3 26 14 65 25 87 44 97 225 270 274 263
20 -3 21 -7 18 -148 -4 -158 13 -270 60 -386 30 -75 51 -88 83 -51 54 61 90
282 82 497 -7 190 -26 264 -83 333 -34 41 -31 90 17 247 55 177 57 245 12 380
-38 115 -65 257 -93 480 -12 91 -25 182 -31 203 -12 44 -2 48 -169 -61 -138
-90 -183 -111 -233 -112 -55 0 -109 32 -200 119 -125 119 -115 116 -362 115
-445 -1 -653 -56 -880 -234 -294 -232 -298 -234 -426 -234 l-96 -1 -154 -77
c-85 -42 -206 -101 -269 -131 -325 -155 -775 -529 -1519 -1262 -561 -554 -959
-976 -1062 -1126 -34 -50 -104 -143 -155 -206 -128 -159 -153 -214 -114 -253
19 -19 28 -21 85 -15 65 7 105 1 105 -16 0 -22 -57 -152 -162 -374 -60 -126
-128 -273 -150 -325 -22 -52 -78 -183 -123 -290 -151 -354 -197 -494 -275
-835 -86 -376 -121 -470 -208 -554 -38 -38 -68 -80 -92 -129 -23 -49 -37 -69
-44 -62 -6 6 -11 72 -11 159 l0 148 42 80 c49 94 62 137 73 249 9 89 25 128
76 188 19 22 36 55 39 75 23 153 99 385 232 711 98 241 251 554 297 606 19 23
41 55 47 70 12 33 16 168 5 202 -28 87 -175 -91 -387 -469 -137 -245 -482
-946 -514 -1044 -17 -52 -46 -111 -72 -148 -55 -79 -100 -172 -108 -219 -4
-25 -18 -50 -42 -73 -19 -19 -46 -49 -59 -67 l-24 -32 0 -5059 0 -5058 49 -48
c76 -74 86 -142 40 -267 -11 -28 -35 -69 -54 -91 l-35 -41 0 -1056 0 -1056
4165 0 4165 0 142 213 c247 370 426 614 761 1040 101 128 222 284 269 347 48
63 140 174 205 246 410 455 568 624 595 635 18 7 51 9 88 6 178 -19 337 -196
348 -388 4 -65 1 -85 -17 -121 -21 -44 -137 -163 -294 -301 -120 -106 -125
-122 -157 -482 -23 -261 -55 -524 -73 -605 -17 -77 -40 -79 -102 -6 -26 30
-55 58 -66 61 -23 8 -91 -30 -131 -72 -30 -32 -58 -91 -58 -125 0 -13 -5 -40
-11 -61 -8 -29 -15 -37 -33 -37 -30 0 -53 34 -67 101 -14 64 0 166 41 289 48
146 54 194 55 380 0 262 -22 317 -105 261 -162 -109 -846 -816 -1131 -1168
-96 -120 -136 -180 -125 -190 14 -15 2009 -23 4805 -21 l3114 3 54 105 c71
136 72 160 7 330 -69 181 -68 209 15 364 l64 119 96 -6 c398 -26 433 -24 497
35 36 34 45 38 50 24 12 -32 -3 -117 -25 -144 -33 -42 -43 -71 -52 -162 -11
-109 -32 -171 -79 -241 -60 -88 -79 -133 -90 -211 -6 -40 -18 -83 -26 -96 -28
-43 -45 -9 -54 107 -9 118 -30 166 -58 137 -15 -15 -17 -40 -15 -177 1 -89 4
-163 6 -166 3 -2 1750 -6 3884 -9 2133 -2 4131 -6 4441 -8 l562 -4 0 8219 0
8219 -105 70 c-57 39 -149 95 -202 126 -168 96 -343 239 -343 279 0 52 285
145 550 179 l95 12 2 279 2 280 -97 47 c-214 103 -361 228 -428 363 -32 65
-39 89 -39 139 0 48 5 67 23 92 33 43 45 188 39 444 -5 215 -13 264 -44 253
-59 -20 -99 -103 -112 -231 -11 -108 -51 -211 -124 -319 -71 -107 -127 -134
-197 -98 -76 39 -89 117 -45 279 32 119 45 265 45 506 0 299 -27 536 -65 586
-15 19 -15 19 -30 0 -24 -31 -71 -187 -134 -441 -66 -267 -71 -275 -146 -275
-75 0 -84 22 -115 275 -22 179 -41 265 -64 284 -10 8 -22 7 -51 -5 -21 -8 -79
-18 -129 -21 -160 -9 -175 -19 -287 -200 -40 -64 -86 -131 -102 -150 -87 -99
-181 -80 -294 59 -61 76 -172 244 -208 316 -28 57 -56 75 -130 87 -55 9 -115
70 -115 117 0 39 13 60 92 147 82 90 102 136 95 219 -10 133 -101 313 -161
320 -79 9 -117 -124 -117 -407 0 -96 -4 -182 -9 -191 -14 -26 -65 -43 -105
-36 -45 9 -531 249 -561 277 -34 32 -36 62 -15 209 36 248 46 373 46 590 0
198 -2 218 -21 254 -30 57 -42 56 -48 -6z m231 -2310 c44 -68 94 -148 111
-178 77 -139 142 -340 162 -501 12 -103 3 -142 -33 -137 -18 2 -27 17 -47 78
-32 93 -45 117 -125 236 -88 132 -127 228 -132 329 -6 117 -11 142 -38 171
-38 41 -31 124 10 124 6 0 47 -55 92 -122z m1580 -23 c61 -43 43 -215 -22
-215 -72 0 -101 144 -42 208 24 26 35 27 64 7z m593 -51 c19 -48 10 -114 -15
-114 -35 0 -66 81 -46 119 16 29 49 27 61 -5z m-20000 -1262 c0 -48 -118 -202
-154 -202 -24 0 -56 41 -56 71 0 40 34 76 109 114 75 39 101 43 101 17z
m18761 -612 c104 -38 157 -69 203 -120 63 -70 70 -125 18 -135 -88 -18 -190
-96 -487 -375 -206 -193 -333 -303 -379 -327 -45 -24 -61 -1 -60 90 2 178 93
402 240 585 123 153 309 312 366 312 10 0 54 -13 99 -30z m-320 -1209 c23 -29
53 -38 156 -50 96 -10 181 -39 283 -95 92 -50 114 -48 180 19 30 30 58 55 64
55 18 0 -14 -347 -64 -695 -39 -272 -50 -466 -55 -960 -4 -444 -12 -550 -56
-684 -44 -136 -116 -241 -240 -349 -116 -102 -157 -128 -177 -115 -25 15 -86
134 -141 273 -50 127 -70 199 -91 325 -6 39 -22 90 -36 115 -47 88 -57 116
-71 210 -23 149 -3 340 36 340 18 0 42 58 35 85 -9 35 -34 46 -87 39 -41 -6
-47 -4 -86 31 -84 76 -138 255 -112 370 21 94 124 225 211 270 97 50 203 -13
273 -164 29 -62 30 -66 24 -177 -6 -105 -5 -116 13 -134 11 -11 25 -20 30 -20
43 0 142 97 180 177 43 90 39 243 -16 540 -42 232 -93 350 -172 396 -18 11
-61 20 -104 24 -111 9 -148 35 -148 103 0 23 10 42 35 67 32 32 39 35 78 30
25 -3 48 -14 58 -26z m-19323 -296 c-4 -44 -15 -80 -37 -121 -63 -118 -101
-143 -101 -66 0 37 18 72 79 157 19 27 35 64 39 87 8 66 25 17 20 -57z m15957
-244 c208 -45 361 -84 387 -99 15 -9 32 -29 39 -44 12 -29 7 -94 -9 -110 -4
-4 -310 -16 -680 -25 -529 -13 -699 -15 -798 -6 -144 13 -172 26 -138 64 69
77 431 187 732 224 166 20 360 18 467 -4z m-16449 -16 c9 -24 -40 -114 -96
-177 -68 -77 -100 -76 -100 2 0 40 57 118 114 157 53 36 74 41 82 18z m-422
-477 c9 -12 16 -43 16 -68 0 -25 7 -74 16 -110 8 -35 12 -76 9 -90 -7 -34 -51
-75 -141 -133 -109 -72 -110 -73 -98 -169 5 -36 -3 -83 -30 -192 -70 -280
-181 -570 -271 -707 -36 -55 -59 -104 -70 -148 -41 -166 -105 -191 -105 -42 0
82 20 167 58 251 33 71 52 157 52 229 0 62 29 107 84 131 55 23 74 51 86 125
6 37 18 67 32 83 22 23 23 30 20 172 -3 184 3 202 130 402 51 79 107 172 126
208 18 35 36 68 38 72 9 15 33 8 48 -14z m533 -8 c47 -28 56 -53 51 -139 -4
-59 -15 -101 -51 -191 -25 -63 -53 -151 -62 -195 -28 -128 -57 -163 -97 -117
-40 45 -98 203 -98 267 0 49 13 65 56 65 88 0 102 29 79 165 -8 50 -15 107
-15 128 l0 37 53 0 c34 0 63 -7 84 -20z m2170 -230 c18 -22 16 -44 -8 -74 -35
-45 -49 -34 -49 37 0 35 3 67 7 70 7 7 30 -8 50 -33z m-2483 -323 c2 -12 11
-61 20 -108 22 -119 21 -127 -11 -135 -79 -16 -99 -56 -90 -172 9 -112 28
-108 97 18 25 44 48 80 52 80 25 0 21 -288 -6 -375 -8 -27 -32 -77 -52 -110
-106 -172 -123 -202 -129 -227 -13 -52 -157 -158 -215 -158 -35 0 -99 39 -115
70 -29 57 -13 127 55 240 22 37 47 95 56 135 24 101 30 113 67 135 47 28 58
59 68 192 4 65 13 126 18 137 6 10 24 21 40 24 46 9 61 42 70 155 10 117 22
147 51 132 11 -6 22 -21 24 -33z m3237 -29 c16 -30 16 -166 0 -196 -25 -47
-76 0 -87 79 -12 92 53 180 87 117z m-4243 -131 c17 -34 2 -113 -29 -164 -25
-40 -33 -41 -47 -5 -21 50 -24 79 -13 118 22 83 63 106 89 51z m2752 -918 c9
-33 8 -45 -5 -65 -19 -30 -30 -30 -49 -2 -19 26 -21 99 -4 116 19 19 46 -4 58
-49z m-2262 -155 c3 -73 -32 -185 -115 -367 -73 -160 -99 -231 -117 -318 -16
-75 -48 -140 -86 -174 l-23 -20 7 82 c9 117 48 258 95 347 22 42 43 93 46 113
11 64 26 91 70 128 35 28 45 44 54 85 6 28 11 67 11 86 0 45 26 107 42 102 8
-3 14 -27 16 -64z m2130 -89 c25 -55 8 -175 -25 -175 -18 0 -43 59 -43 100 0
41 25 100 43 100 8 0 19 -11 25 -25z m-2668 -151 c0 -67 -4 -89 -26 -133 -15
-28 -28 -50 -31 -47 -3 2 2 38 11 80 8 41 18 105 22 141 9 89 24 64 24 -41z
m2549 -100 c29 -36 27 -100 -4 -209 -35 -120 -91 -231 -132 -263 -38 -30 -63
-70 -63 -101 0 -25 -50 -83 -94 -110 -39 -24 -76 -88 -76 -130 0 -40 -26 -91
-46 -91 -22 0 -36 49 -29 103 6 52 23 97 36 97 13 0 36 51 48 108 14 65 50
137 153 305 90 146 138 241 138 273 0 22 18 44 36 44 7 0 22 -12 33 -26z
m-2545 -1060 c14 -36 -29 -132 -104 -234 -83 -113 -129 -191 -136 -229 -9 -48
-26 -81 -59 -111 -29 -27 -65 -92 -85 -155 -25 -77 -71 -120 -87 -79 -8 21 21
123 52 184 13 26 58 99 98 161 41 63 110 177 154 254 127 223 150 253 167 209z
m21542 -1346 c123 -189 231 -313 621 -710 145 -147 263 -273 263 -278 0 -19
-84 -138 -565 -800 -323 -445 -357 -489 -419 -548 -40 -37 -56 -59 -56 -77 0
-63 -51 -90 -71 -37 -15 40 -2 104 32 156 33 49 46 111 30 136 -16 24 -54 -3
-129 -90 -257 -298 -282 -324 -305 -301 -9 9 -7 34 5 109 46 267 197 675 328
882 43 69 81 174 100 280 24 134 122 290 193 308 43 11 49 48 45 242 -4 177
-16 215 -89 298 -78 88 -83 107 -76 272 7 147 17 260 24 260 2 0 33 -46 69
-102z m-19522 -388 c0 -25 -23 -115 -52 -205 -71 -218 -250 -879 -301 -1108
-23 -102 -58 -235 -77 -294 -144 -435 -426 -1039 -581 -1242 -18 -25 -54 -86
-79 -137 -75 -154 -260 -348 -451 -474 -121 -80 -145 -85 -189 -39 -41 44 -83
61 -125 49 -73 -21 -77 -2 -18 85 108 161 135 205 211 355 80 159 83 164 192
273 61 62 140 154 176 204 205 292 403 677 525 1023 117 330 412 969 502 1087
39 51 53 89 53 146 0 47 20 96 53 129 14 14 42 59 62 99 46 92 53 101 79 97
18 -3 21 -10 20 -48z m-1526 -1332 c20 -20 14 -65 -14 -97 -14 -17 -30 -31
-35 -31 -15 0 -10 94 7 118 17 25 25 27 42 10z m14502 -1947 c21 -40 12 -120
-21 -181 -28 -53 -129 -156 -129 -132 0 22 42 211 56 254 22 69 72 99 94 59z
m-14537 -503 c15 -6 27 -14 27 -18 0 -25 -177 -60 -301 -60 -49 0 -89 4 -89 8
0 14 43 50 75 62 69 27 227 31 288 8z m-479 -157 c15 -6 10 -11 -29 -26 -76
-28 -126 -31 -155 -7 l-25 21 25 10 c29 11 156 13 184 2z m-311 -91 c19 -18 0
-46 -48 -70 -42 -21 -68 -25 -157 -28 -67 -3 -108 0 -108 6 0 14 63 60 108 79
71 29 180 36 205 13z m-923 -669 c23 -45 6 -141 -25 -141 -21 0 -35 33 -35 80
0 47 14 80 35 80 8 0 19 -9 25 -19z m19010 -1770 c0 -21 -83 -112 -124 -136
-89 -52 -159 -9 -82 50 84 64 206 115 206 86z m-9480 -2883 c40 -66 17 -213
-32 -206 -50 7 -75 127 -44 203 19 46 49 47 76 3z"/>
<path d="M23251 14191 c-27 -27 -35 -60 -22 -94 24 -62 103 -8 105 72 1 33 -1
36 -31 39 -22 2 -38 -3 -52 -17z"/>
<path d="M2185 6519 c-33 -11 -74 -31 -91 -45 -55 -41 -62 -108 -14 -134 42
-22 96 14 135 90 13 25 35 56 49 69 14 14 26 28 26 33 0 14 -42 8 -105 -13z"/>
<path d="M3025 18816 c-68 -17 -94 -32 -106 -63 -9 -25 -10 -25 -84 -18 -90 8
-156 -10 -203 -56 -54 -52 -38 -108 30 -109 13 0 106 26 208 59 102 33 212 68
245 78 32 9 73 29 90 44 28 26 29 29 14 44 -17 18 -78 35 -119 34 -14 0 -47
-6 -75 -13z"/>
<path d="M18769 18483 c-22 -25 -18 -112 5 -128 14 -11 24 -12 40 -3 51 27 61
84 21 123 -28 29 -47 31 -66 8z"/>
<path d="M7602 17908 c-5 -7 -15 -33 -22 -56 -12 -48 -29 -441 -30 -709 l0
-173 -36 -39 c-19 -22 -50 -45 -68 -51 -18 -6 -46 -25 -64 -43 -62 -64 -74
-130 -76 -427 -2 -206 -5 -252 -20 -290 -38 -98 -57 -243 -81 -601 -23 -370
-62 -623 -130 -857 -65 -225 -126 -355 -260 -557 -59 -89 -99 -162 -111 -200
-21 -70 -249 -532 -354 -720 -40 -71 -88 -147 -106 -168 -29 -31 -34 -45 -34
-85 0 -87 50 -148 128 -159 86 -11 124 23 57 51 -61 26 -73 104 -20 128 35 16
68 -1 99 -51 19 -30 30 -38 45 -34 63 16 402 425 442 533 11 30 29 63 39 72
11 10 37 49 59 87 63 107 367 740 385 799 8 29 18 88 21 130 6 79 30 162 45
162 5 0 16 23 25 52 33 112 7 234 -41 186 -13 -13 -25 -61 -40 -161 -4 -30
-18 -51 -59 -90 -44 -44 -56 -63 -74 -122 -25 -83 -55 -135 -76 -135 -40 0
-26 101 60 420 30 113 60 243 66 290 19 156 28 187 69 242 51 67 55 101 40
299 -14 188 -7 313 25 420 24 79 45 174 69 318 27 154 75 223 279 406 46 42
58 60 72 108 40 139 36 361 -10 574 -55 251 -127 403 -216 449 -34 17 -83 18
-97 2z m-440 -3750 c1 -72 -2 -92 -16 -106 -16 -16 -18 -16 -32 3 -17 23 -14
59 13 168 14 56 19 64 25 46 5 -12 9 -62 10 -111z m-106 -204 c7 -29 -2 -108
-17 -153 -6 -18 -24 -38 -40 -46 -17 -10 -31 -26 -34 -43 -15 -73 -28 -101
-66 -147 -59 -70 -134 -187 -171 -264 -37 -80 -74 -131 -94 -131 -20 0 -50
-53 -58 -101 -4 -22 -19 -53 -36 -71 -24 -27 -32 -31 -47 -22 -14 8 -19 26
-21 73 -4 75 16 122 64 150 35 21 44 36 63 106 6 22 31 64 55 93 25 28 64 87
87 129 24 43 57 101 74 128 18 28 58 97 89 155 58 105 109 170 133 170 7 0 16
-11 19 -26z"/>
<path d="M7361 17533 c-18 -109 -43 -250 -56 -313 l-23 -115 63 68 c87 93 110
142 109 237 0 68 -36 275 -54 308 -4 8 -21 -76 -39 -185z"/>
<path d="M2656 17429 c-29 -35 -32 -51 -12 -68 35 -29 134 50 106 84 -21 26
-65 18 -94 -16z"/>
<path d="M3051 17249 c-58 -39 -111 -94 -111 -116 0 -17 35 -43 58 -43 12 0
35 12 52 28 32 29 100 137 100 159 0 24 -37 13 -99 -28z"/>
<path d="M1575 16795 c-5 -2 -27 -6 -48 -10 -23 -4 -53 -20 -77 -42 -45 -40
-110 -161 -110 -205 0 -34 -39 -78 -70 -78 -29 0 -60 -18 -60 -35 0 -23 30
-45 61 -45 41 0 69 17 69 41 0 12 10 24 28 30 78 31 103 46 177 104 44 35 123
104 175 154 l95 90 -115 0 c-63 0 -119 -2 -125 -4z"/>
<path d="M14875 15213 c-96 -15 -170 -16 -624 -9 l-103 1 -32 -36 c-35 -41
-73 -136 -60 -149 13 -12 154 -53 379 -109 388 -97 545 -150 545 -186 0 -39
-88 -57 -545 -115 -338 -43 -681 -96 -837 -130 -119 -26 -192 -73 -343 -225
-154 -154 -182 -218 -107 -246 39 -15 98 3 229 67 144 71 184 81 377 95 185
13 1470 5 1601 -10 198 -23 243 -25 269 -8 14 9 34 38 46 64 31 70 64 108 115
133 68 33 79 56 83 177 3 57 1 146 -3 197 l-7 93 -125 17 c-162 22 -195 38
-219 108 -29 89 -154 193 -301 253 -86 34 -197 41 -338 18z"/>
<path d="M10372 14558 c-39 -28 -133 -134 -178 -203 -18 -27 -40 -76 -49 -108
-25 -88 -10 -137 71 -229 42 -48 82 -108 115 -176 69 -138 103 -161 153 -102
54 65 97 293 100 530 1 122 -1 139 -22 182 -28 57 -103 128 -135 128 -12 0
-37 -10 -55 -22z"/>
<path d="M6240 14336 c-12 -25 -20 -61 -18 -78 4 -39 30 -57 53 -38 14 12 16
26 12 78 -7 87 -21 98 -47 38z"/>
<path d="M7413 13790 c-14 -6 -39 -42 -68 -102 -89 -178 -250 -394 -476 -636
-212 -227 -277 -302 -414 -472 -175 -217 -323 -378 -705 -765 -356 -360 -410
-419 -410 -446 0 -46 74 -39 145 16 114 86 1855 1823 1855 1850 0 7 38 66 85
131 129 182 147 251 94 361 -17 35 -63 76 -81 72 -2 0 -13 -4 -25 -9z"/>
<path d="M12040 13607 c-25 -9 -40 -23 -53 -49 -24 -49 -33 -194 -17 -273 11
-56 17 -65 89 -135 95 -93 223 -183 254 -178 19 3 22 8 20 48 -2 59 -47 258
-85 376 -57 175 -121 240 -208 211z"/>
<path d="M10503 13310 c-215 -56 -452 -258 -552 -471 -17 -35 -31 -77 -31 -92
0 -37 40 -77 78 -77 52 0 191 -30 306 -66 134 -42 186 -50 224 -35 40 17 52
43 62 135 9 89 36 172 109 334 46 101 101 244 101 261 0 34 -182 41 -297 11z"/>
<path d="M17911 12746 c-79 -26 -72 -70 33 -224 123 -180 122 -195 -16 -399
-38 -56 -86 -117 -107 -136 -91 -82 -202 -125 -420 -163 -224 -39 -264 -60
-436 -223 -162 -154 -271 -225 -392 -256 -158 -41 -295 1 -478 147 -208 164
-332 227 -418 214 -54 -9 -117 -50 -117 -77 0 -11 23 -71 50 -133 38 -87 50
-124 50 -163 0 -59 -8 -69 -77 -83 -100 -22 -233 -122 -274 -207 -18 -37 -19
-49 -10 -97 21 -115 55 -144 185 -157 61 -6 87 -14 119 -36 36 -25 47 -28 109
-25 l68 3 20 -46 c25 -59 62 -80 169 -97 129 -20 478 -16 616 7 93 15 144 17
330 11 148 -4 233 -2 260 5 91 25 116 23 219 -21 140 -60 180 -57 211 16 20
49 45 58 144 51 107 -8 246 -34 283 -53 34 -18 36 -44 8 -105 -26 -59 -25 -97
5 -141 14 -20 25 -47 25 -60 0 -29 -138 -165 -232 -228 -37 -25 -68 -51 -68
-57 0 -31 200 -1 484 72 230 59 417 121 561 187 148 68 216 93 278 102 34 5
52 14 63 31 34 52 7 151 -49 185 -46 28 -149 44 -246 37 -114 -8 -181 -28
-245 -72 -70 -48 -119 -55 -165 -23 -71 47 -109 184 -91 323 16 120 12 196
-10 235 -93 159 -165 380 -191 587 -10 78 -9 102 5 165 22 98 51 148 100 172
36 18 47 18 120 8 65 -10 218 -49 339 -88 17 -5 18 -2 12 37 -4 24 -15 62 -25
84 -43 98 -394 443 -630 621 -101 76 -124 85 -169 70z"/>
<path d="M15254 12481 c-56 -26 -124 -83 -308 -256 -295 -278 -617 -636 -756
-840 -246 -362 -275 -625 -104 -956 61 -118 98 -159 149 -166 34 -4 55 3 150
52 134 69 149 69 153 -2 3 -55 -12 -99 -50 -146 -23 -28 -23 -29 -4 -43 27
-19 106 -18 281 6 179 24 283 25 356 4 30 -9 124 -47 209 -84 199 -88 299
-121 381 -128 58 -4 69 -2 88 17 25 25 27 56 4 113 -61 158 -224 314 -401 387
-112 46 -196 61 -348 61 l-137 0 7 48 c18 136 64 235 132 287 41 31 74 81 74
111 0 27 -30 54 -61 54 -46 0 -127 50 -185 113 -83 92 -98 126 -91 212 3 38
15 95 26 127 28 74 114 209 193 303 207 248 271 352 308 499 21 85 26 186 10
215 -15 28 -33 31 -76 12z m-304 -1540 c26 -50 -1 -101 -55 -101 -61 0 -73 45
-24 91 36 34 64 37 79 10z"/>
<path d="M6729 12288 c-90 -72 -250 -222 -552 -516 -305 -298 -504 -478 -619
-558 -46 -31 -125 -92 -176 -133 -203 -166 -271 -214 -372 -264 -121 -59 -116
-65 39 -48 130 14 229 17 258 7 15 -5 26 -20 33 -46 8 -31 23 -48 68 -81 120
-86 369 -185 529 -210 144 -22 344 20 529 111 121 60 184 117 224 203 75 160
96 362 65 632 -28 249 -19 422 36 685 39 187 45 236 29 255 -7 8 -15 15 -19
15 -4 0 -36 -23 -72 -52z"/>
<path d="M18984 11655 c-12 -30 65 -124 119 -144 36 -14 94 -14 102 -1 9 14
-99 125 -140 144 -41 20 -74 20 -81 1z"/>
<path d="M19379 11105 c-26 -14 -181 -186 -252 -279 -51 -66 -48 -93 13 -124
32 -15 78 -25 150 -32 81 -8 112 -15 134 -31 24 -18 37 -20 82 -15 78 9 238
62 259 86 18 20 18 22 -2 63 -32 66 -133 194 -216 275 -81 78 -111 88 -168 57z"/>
<path d="M5004 10346 c-86 -28 -155 -73 -195 -129 -41 -57 -36 -79 21 -89 124
-22 443 67 484 134 14 23 -18 66 -65 90 -49 26 -156 23 -245 -6z"/>
<path d="M5377 10152 c-28 -32 -113 -372 -105 -424 4 -29 55 -55 138 -70 91
-17 95 -10 95 150 -1 134 -16 217 -56 300 -26 53 -51 68 -72 44z"/>
<path d="M5863 9575 c-56 -40 -11 -126 143 -277 91 -88 147 -128 180 -128 71
0 12 185 -97 304 -85 93 -179 135 -226 101z"/>
<path d="M16310 7774 c-19 -22 -16 -93 5 -133 25 -49 113 -140 157 -162 42
-22 104 -25 111 -6 6 17 -17 70 -50 114 -72 99 -130 166 -159 184 -38 23 -48
24 -64 3z"/>
</g>
</svg>
