<?xml version="1.0" standalone="no"?>
<!DOCTYPE svg PUBLIC "-//W3C//DTD SVG 20010904//EN"
 "http://www.w3.org/TR/2001/REC-SVG-20010904/DTD/svg10.dtd">
<svg version="1.0" xmlns="http://www.w3.org/2000/svg"
 width="300.000000pt" height="193.000000pt" viewBox="0 0 300.000000 193.000000"
 preserveAspectRatio="xMidYMid meet">
<metadata>
Created by potrace 1.10, written by Peter Selinger 2001-2011
</metadata>
<g transform="translate(0.000000,193.000000) scale(0.100000,-0.100000)"
fill="#000000" stroke="none">
<path d="M968 1901 c-3 -19 0 -32 9 -35 15 -6 18 31 4 53 -6 9 -10 4 -13 -18z"/>
<path d="M1680 1904 c0 -16 -6 -39 -14 -50 -14 -18 -15 -17 -30 16 l-15 35 -1
-38 c0 -31 -5 -39 -25 -47 -14 -5 -25 -15 -25 -22 0 -6 -6 -4 -13 6 -13 17
-14 18 -20 2 -4 -10 -11 -15 -17 -11 -5 3 -13 -9 -18 -27 -5 -18 -14 -32 -20
-31 -6 2 -13 -6 -17 -16 -7 -24 -61 -71 -71 -63 -4 4 -4 1 0 -6 11 -19 -2 -62
-19 -62 -8 0 -16 -6 -16 -12 -1 -12 -5 -52 -8 -90 -2 -28 -31 -22 -31 6 0 14
-4 27 -9 30 -17 11 -41 -6 -41 -28 1 -20 1 -20 15 -2 13 17 15 17 21 3 3 -10
3 -24 0 -33 -5 -13 -1 -15 16 -12 22 4 23 2 20 -51 -3 -41 -10 -61 -25 -76
-12 -11 -25 -19 -29 -18 -4 2 -5 -4 -2 -12 7 -17 30 -20 39 -5 12 19 45 11 45
-10 0 -11 5 -20 11 -20 12 0 1 43 -12 48 -5 2 -6 8 -3 14 4 6 1 13 -5 17 -16
10 2 105 42 216 29 81 39 97 98 155 73 72 188 136 263 146 38 6 43 9 31 20 -7
8 -11 23 -8 34 3 11 0 20 -6 20 -6 0 -11 -9 -11 -21 0 -11 -4 -18 -9 -14 -5 3
-13 0 -18 -7 -5 -9 -10 -3 -14 17 l-7 30 -1 -27 c0 -16 -6 -28 -12 -28 -5 0
-8 4 -5 9 3 4 -1 17 -9 27 -13 18 -14 17 -15 -12z"/>
<path d="M877 1913 c-11 -10 -9 -16 18 -47 29 -34 30 -31 10 18 -16 38 -18 40
-28 29z"/>
<path d="M310 1885 c-5 -14 -14 -25 -20 -25 -5 0 -10 -9 -10 -21 0 -19 1 -19
17 -3 10 9 18 22 19 28 1 6 5 19 9 29 4 9 4 17 1 17 -4 0 -11 -11 -16 -25z"/>
<path d="M1100 1901 c0 -8 -8 -20 -17 -27 -17 -12 -17 -13 -1 -14 9 0 29 -11
43 -25 24 -24 25 -25 25 -5 0 11 -5 20 -11 20 -6 0 -9 9 -6 19 2 10 1 25 -4
32 -7 12 -9 11 -9 -1 0 -13 -1 -13 -10 0 -8 12 -10 12 -10 1z"/>
<path d="M23 1876 c-6 -8 -9 -17 -6 -20 10 -10 51 -7 58 4 4 6 3 10 -2 9 -20
-3 -34 2 -28 11 9 15 -8 11 -22 -4z"/>
<path d="M677 1873 c-3 -5 -8 -30 -12 -58 -5 -39 -4 -47 6 -38 6 6 13 32 14
57 2 46 0 53 -8 39z"/>
<path d="M480 1856 c0 -9 -5 -25 -12 -36 -16 -25 -4 -37 17 -17 19 20 24 58 8
64 -7 3 -13 -3 -13 -11z"/>
<path d="M1077 1772 c-6 -30 0 -45 14 -37 12 8 12 52 0 59 -5 3 -11 -7 -14
-22z"/>
<path d="M233 1769 c-18 -39 -23 -58 -14 -64 11 -6 34 48 29 71 -2 14 -5 13
-15 -7z"/>
<path d="M1020 1773 c0 -15 -2 -16 -10 -3 -8 13 -10 12 -10 -2 0 -10 5 -18 10
-18 6 0 13 0 17 -1 4 0 10 9 15 20 5 15 3 21 -7 21 -8 0 -15 -8 -15 -17z"/>
<path d="M1963 1765 c0 -8 3 -13 5 -10 3 3 14 -7 24 -22 22 -34 24 -23 3 17
-17 32 -32 39 -32 15z"/>
<path d="M2525 1770 c-4 -6 12 -10 42 -9 39 1 43 3 23 9 -36 11 -58 11 -65 0z"/>
<path d="M19 1748 c0 -7 -2 -23 -5 -35 -4 -26 11 -31 20 -7 9 24 7 54 -4 54
-5 0 -10 -6 -11 -12z"/>
<path d="M2060 1737 c15 -13 35 -40 47 -67 4 -8 13 -21 21 -29 7 -8 11 -23 9
-33 -4 -15 -3 -17 8 -8 22 18 33 4 56 -71 15 -49 26 -69 37 -69 11 0 13 3 6 8
-16 10 -25 55 -14 72 5 8 10 10 10 5 0 -6 14 -16 31 -24 23 -10 28 -16 18 -22
-11 -7 -11 -9 -1 -9 7 0 11 -4 8 -8 -2 -4 5 -9 17 -9 18 -2 19 0 6 7 -11 6
-15 18 -11 35 4 24 5 24 17 8 12 -15 14 -16 18 -3 11 34 15 90 6 90 -5 0 -9
-9 -9 -20 0 -12 -7 -20 -16 -20 -9 0 -18 -9 -21 -20 -3 -11 -10 -20 -15 -20
-11 0 -38 62 -31 72 6 12 -7 48 -18 48 -5 0 -9 -13 -9 -30 0 -16 5 -30 10 -30
6 0 10 -4 10 -9 0 -5 -17 0 -39 12 -36 20 -38 22 -30 56 12 49 11 81 -1 81 -5
0 -10 -16 -10 -35 0 -19 -4 -35 -10 -35 -5 0 -10 4 -10 9 0 18 -67 81 -86 81
-17 -1 -17 -2 -4 -13z"/>
<path d="M2765 1740 c3 -5 -2 -10 -12 -10 -58 -2 -115 -9 -121 -15 -4 -4 25
-5 63 -1 39 4 104 8 145 10 41 2 90 4 108 4 19 1 31 6 27 12 -3 6 -52 10 -111
10 -68 0 -103 -4 -99 -10z"/>
<path d="M320 1729 c0 -6 -6 -9 -14 -6 -11 4 -14 -2 -14 -26 1 -18 3 -26 5
-19 3 6 11 12 18 12 8 0 16 10 18 23 4 21 4 22 6 0 1 -16 6 -20 21 -16 13 3
20 13 19 27 -1 17 -2 17 -6 4 -6 -22 -19 -23 -27 -3 -6 17 -26 20 -26 4z"/>
<path d="M590 1718 c0 -24 27 -43 54 -39 4 1 5 -10 2 -24 -5 -18 -2 -25 9 -25
11 0 15 10 15 36 0 29 -3 35 -16 30 -9 -3 -25 4 -40 21 l-24 26 0 -25z"/>
<path d="M1316 1712 c-13 -26 -14 -32 -1 -42 10 -8 12 -22 8 -43 -6 -30 -5
-31 10 -15 22 21 22 47 0 64 -16 11 -16 16 -5 34 7 12 11 24 8 27 -2 3 -11 -9
-20 -25z"/>
<path d="M954 1716 c-4 -10 -13 -15 -21 -11 -11 3 -13 1 -10 -10 4 -8 2 -17
-3 -20 -6 -4 -10 -15 -10 -26 0 -18 2 -18 25 6 14 14 32 25 40 25 8 0 15 4 15
10 0 5 7 7 15 4 9 -4 15 0 15 9 0 20 -17 31 -25 17 -5 -8 -11 -7 -21 1 -11 9
-15 8 -20 -5z"/>
<path d="M700 1680 c0 -40 0 -42 -11 -62 -7 -14 -6 -16 6 -12 11 4 15 20 15
55 0 27 -2 49 -5 49 -3 0 -5 -13 -5 -30z"/>
<path d="M1049 1692 c-15 -19 -23 -72 -10 -72 8 0 33 81 27 87 -1 1 -9 -5 -17
-15z"/>
<path d="M837 1672 c-5 -7 -6 -25 -2 -41 4 -21 2 -30 -10 -35 -9 -3 -13 -11
-9 -18 5 -7 2 -9 -9 -5 -8 3 -21 -1 -27 -9 -11 -12 -6 -14 28 -14 35 0 39 2
35 20 -3 11 -1 26 4 33 5 6 7 28 3 47 -3 23 -8 31 -13 22z"/>
<path d="M242 1648 c5 -32 28 -35 28 -4 0 17 -5 26 -16 26 -10 0 -14 -7 -12
-22z"/>
<path d="M1080 1625 c0 -28 4 -44 10 -40 6 3 10 21 10 40 0 19 -4 37 -10 40
-6 4 -10 -12 -10 -40z"/>
<path d="M319 1630 c-1 -14 -1 -31 0 -37 1 -7 -4 -13 -11 -13 -9 0 -9 -3 2
-10 22 -14 43 9 35 39 -9 38 -25 50 -26 21z"/>
<path d="M411 1638 c-1 -11 -6 -15 -15 -12 -20 8 -14 -26 6 -37 20 -11 27 7
17 41 -4 16 -7 18 -8 8z"/>
<path d="M2613 1632 c-13 -2 -23 -7 -23 -11 0 -4 92 -7 205 -7 144 1 205 4
205 12 0 8 -54 11 -182 10 -101 0 -193 -2 -205 -4z"/>
<path d="M1194 1618 c-9 -15 22 -42 40 -35 9 4 13 13 10 21 -7 18 -42 28 -50
14z"/>
<path d="M2470 1620 c-27 -6 -19 -8 38 -9 39 0 72 3 72 8 0 10 -60 11 -110 1z"/>
<path d="M90 1597 c0 -20 5 -27 20 -27 11 0 20 4 20 8 0 5 -9 17 -20 27 -20
18 -20 17 -20 -8z"/>
<path d="M140 1603 c0 -28 10 -34 27 -17 9 8 13 18 9 21 -3 4 -6 3 -6 -2 0 -4
-7 -2 -15 5 -12 10 -15 9 -15 -7z"/>
<path d="M902 1595 c-6 -14 -18 -25 -27 -25 -21 0 -19 -27 3 -38 9 -6 33 -13
52 -16 28 -5 31 -5 18 4 -10 6 -18 19 -18 28 0 10 -5 23 -12 30 -8 8 -8 15 2
27 7 8 8 15 3 15 -5 0 -15 -11 -21 -25z"/>
<path d="M2369 1563 c-1 -27 0 -57 1 -68 2 -16 0 -17 -14 -6 -13 11 -16 11
-16 -2 0 -8 7 -18 16 -21 8 -3 12 -11 8 -17 -4 -8 -3 -9 4 -5 7 4 12 3 12 -2
0 -5 9 -12 19 -15 11 -2 21 -15 23 -28 3 -27 30 -35 84 -24 44 8 43 22 -1 31
-19 3 -46 15 -59 25 -20 16 -23 24 -18 71 5 56 -6 61 -17 7 -4 -18 -11 -34
-17 -36 -8 -3 -10 18 -6 67 3 48 1 70 -7 70 -6 0 -11 -19 -12 -47z"/>
<path d="M196 1584 c-7 -18 0 -34 15 -34 5 0 9 11 9 25 0 28 -15 34 -24 9z"/>
<path d="M515 1547 c-15 -61 -16 -89 -2 -84 6 2 12 17 12 33 1 25 5 29 38 35
21 3 38 2 40 -5 2 -6 6 -6 11 2 4 7 2 12 -4 12 -8 0 -8 6 0 20 6 11 7 20 1 20
-5 0 -12 -8 -15 -17 -6 -13 -9 -14 -15 -4 -6 10 -11 9 -25 -4 -14 -14 -16 -14
-16 -1 0 30 -18 25 -25 -7z"/>
<path d="M980 1541 c0 -12 6 -21 16 -21 9 0 14 7 12 17 -5 25 -28 28 -28 4z"/>
<path d="M277 1543 c-10 -10 -8 -53 2 -53 13 0 22 28 10 35 -5 4 -7 11 -4 16
7 10 1 12 -8 2z"/>
<path d="M326 1509 c-8 -42 -8 -74 1 -65 8 7 17 96 10 96 -3 0 -7 -14 -11 -31z"/>
<path d="M180 1498 c0 -13 5 -30 10 -38 7 -11 10 -7 10 17 0 17 -4 35 -10 38
-6 3 -10 -4 -10 -17z"/>
<path d="M463 1514 c-7 -3 -9 -12 -6 -20 3 -8 0 -14 -7 -14 -6 0 -9 -4 -6 -9
4 -5 0 -12 -6 -14 -10 -4 -10 -6 0 -6 6 -1 12 -9 12 -18 0 -14 2 -15 9 -4 5 8
18 12 31 8 18 -5 19 -3 9 9 -7 9 -21 13 -31 11 -17 -5 -17 -3 3 29 20 33 18
38 -8 28z"/>
<path d="M1099 1488 c-21 -50 -20 -60 4 -56 17 2 22 10 22 36 1 49 -10 58 -26
20z"/>
<path d="M630 1501 c-8 -6 -17 -8 -20 -6 -3 1 -11 -3 -18 -11 -18 -20 1 -18
58 6 36 15 40 19 20 19 -14 1 -32 -3 -40 -8z"/>
<path d="M953 1464 c-7 -12 -10 -24 -7 -27 3 -2 -1 -21 -10 -40 -12 -29 -12
-35 -1 -31 10 4 12 -1 8 -18 -5 -23 -5 -23 11 -3 15 19 16 18 9 -24 -4 -33 -3
-42 6 -37 17 11 11 115 -6 109 -7 -3 -13 2 -13 10 0 8 5 17 11 19 6 2 9 17 7
33 -3 29 -4 29 -15 9z"/>
<path d="M833 1460 c-24 -10 -87 -99 -98 -140 -4 -14 11 2 32 35 49 74 85 102
106 80 8 -8 16 -13 18 -12 2 1 -8 -9 -23 -23 -16 -14 -28 -34 -28 -45 0 -14
-3 -16 -8 -7 -6 8 -16 -4 -32 -38 -32 -68 -20 -73 21 -8 18 29 52 72 75 95 37
38 40 44 25 56 -20 16 -59 19 -88 7z"/>
<path d="M2525 1450 c-12 -4 18 -6 69 -4 49 2 92 6 94 9 9 8 -142 4 -163 -5z"/>
<path d="M76 1420 c-9 -50 -7 -58 10 -27 10 18 12 33 6 43 -7 13 -10 10 -16
-16z"/>
<path d="M1003 1436 c19 -14 26 -103 7 -91 -5 3 -10 -2 -10 -12 -2 -85 -23
-169 -60 -239 -22 -42 -38 -79 -35 -82 3 -3 5 -1 5 5 0 5 7 10 15 10 23 0 19
-7 -42 -71 -32 -33 -49 -53 -39 -45 11 8 46 42 79 77 33 34 67 61 75 60 8 -2
17 3 20 11 3 9 0 11 -9 7 -8 -4 -5 0 5 8 11 9 16 16 12 16 -5 0 -3 7 4 15 9
11 9 15 1 15 -7 0 -9 5 -6 10 3 6 4 10 1 10 -3 0 -14 -17 -25 -38 -21 -41 -44
-65 -66 -68 -8 -1 -11 4 -8 13 4 11 8 12 13 3 10 -16 57 63 76 127 10 33 11
50 3 59 -15 18 -2 92 18 103 12 6 14 17 8 49 -7 42 -17 55 -45 59 -12 1 -11
-1 3 -11z m-2 -268 c-18 -53 -50 -112 -57 -105 -2 1 10 29 26 61 17 32 30 66
30 76 0 17 10 33 17 27 2 -2 -6 -29 -16 -59z"/>
<path d="M1141 1409 c-9 -27 -13 -30 -26 -19 -33 27 -11 1 68 -82 76 -81 83
-86 101 -73 29 22 43 18 51 -12 3 -15 10 -30 15 -33 4 -3 10 -34 13 -69 3 -35
9 -66 14 -70 5 -3 15 -15 21 -26 10 -18 11 -18 12 -2 0 10 -5 28 -11 39 -6 12
-11 44 -10 72 0 39 -5 59 -25 88 -15 21 -29 38 -33 39 -3 0 -23 1 -44 3 -35 3
-89 36 -59 36 7 0 12 5 12 10 0 6 -7 10 -15 10 -9 0 -21 11 -27 25 -6 14 -15
25 -20 25 -5 0 -7 4 -4 9 3 5 0 11 -8 14 -9 4 -12 14 -9 26 8 33 -4 24 -16
-10z"/>
<path d="M744 1417 c-35 -20 -94 -69 -94 -78 0 -15 36 5 80 44 44 40 50 54 14
34z"/>
<path d="M146 1412 c-3 -6 -2 -14 4 -17 8 -5 8 -11 0 -20 -8 -10 -8 -15 0 -20
6 -4 9 -14 5 -22 -4 -13 -3 -14 10 -3 11 9 12 16 4 26 -6 7 -8 18 -4 23 3 6 2
18 -3 27 -6 11 -12 13 -16 6z"/>
<path d="M579 1388 c-17 -10 -27 -23 -24 -28 3 -6 -3 -10 -14 -10 -12 0 -21
-7 -21 -15 0 -8 -5 -14 -11 -12 -6 1 -15 -8 -20 -21 -8 -20 -2 -18 39 15 26
21 49 41 52 44 3 3 20 14 38 23 17 9 32 18 32 21 0 10 -45 -1 -71 -17z"/>
<path d="M2230 1378 c0 -25 3 -28 24 -22 19 4 28 0 42 -20 15 -24 16 -38 4
-154 -9 -98 -16 -132 -31 -147 -18 -20 -18 -24 -2 -118 15 -89 20 -102 56
-143 34 -39 37 -47 25 -57 -9 -7 -35 -41 -59 -77 -24 -36 -76 -97 -116 -137
-40 -39 -73 -78 -73 -87 0 -10 16 1 42 29 32 34 45 42 55 33 9 -7 13 -7 13 0
0 16 44 81 55 82 10 1 73 96 88 133 4 11 13 17 21 14 11 -4 12 0 4 21 -8 22
-5 39 16 89 26 62 34 123 17 123 -10 0 -21 -34 -21 -70 0 -14 -9 -36 -20 -50
l-20 -25 -20 25 c-11 14 -24 30 -28 35 -4 6 -9 19 -10 30 -1 11 -4 34 -5 51
-2 17 -7 36 -11 42 -12 19 39 62 76 63 24 1 27 3 10 6 -26 5 -57 47 -47 63 3
6 10 8 15 5 4 -3 6 29 4 70 l-4 75 38 1 c29 1 32 2 14 7 -27 8 -57 61 -43 75
10 10 75 -15 86 -33 3 -6 15 -10 26 -10 21 0 25 -10 8 -27 -16 -16 -1 -37 16
-23 10 9 17 9 27 0 7 -6 32 -25 56 -42 45 -32 66 -67 55 -93 -5 -14 -8 -14
-24 1 -31 28 -31 10 1 -24 31 -34 42 -40 39 -19 -3 25 1 47 9 47 8 0 47 -74
47 -90 0 -3 6 -14 14 -25 9 -15 11 -16 7 -2 -3 9 -2 17 3 17 5 0 12 -17 16
-37 4 -23 9 -32 14 -24 10 16 52 -84 45 -107 -5 -14 -4 -15 5 -2 9 12 11 11
11 -10 0 -14 7 -34 15 -44 8 -11 13 -28 10 -37 -4 -10 4 -40 16 -66 12 -26 22
-64 23 -83 1 -33 -2 -37 -64 -67 -65 -34 -63 -46 4 -18 20 9 42 15 49 14 27
-3 35 2 47 31 11 27 8 41 -25 132 -108 296 -222 488 -325 551 -19 11 -46 31
-59 44 -36 34 -137 78 -146 63 -9 -15 -28 -12 -22 3 3 7 -14 18 -44 28 l-49
16 0 -29z"/>
<path d="M30 1370 c0 -5 -7 -7 -15 -4 -18 7 -18 4 -5 -30 14 -37 26 -32 26 9
0 19 -1 35 -3 35 -2 0 -3 -4 -3 -10z"/>
<path d="M886 1337 c3 -8 -2 -31 -10 -52 -19 -44 -19 -48 -6 -40 6 3 10 1 10
-6 0 -7 3 -10 6 -6 11 11 14 106 4 112 -5 3 -7 0 -4 -8z"/>
<path d="M2248 1300 c-20 -20 -26 -30 -15 -26 10 3 24 6 32 6 12 0 29 39 21
48 -2 2 -19 -11 -38 -28z"/>
<path d="M569 1259 c-33 -33 -58 -63 -55 -67 4 -3 13 3 22 14 13 16 15 17 10
2 -3 -10 -1 -18 4 -18 6 0 10 5 10 10 0 6 7 10 15 10 8 0 15 5 15 11 0 5 -4 8
-9 4 -5 -3 -13 0 -17 7 -4 7 -4 10 1 6 4 -4 14 -3 22 3 7 6 13 8 13 3 0 -4 14
8 30 26 17 18 30 37 30 42 0 23 -36 2 -91 -53z"/>
<path d="M344 1236 c-29 -30 -62 -72 -73 -95 -32 -62 -25 -62 12 -1 20 32 40
54 49 52 8 -1 21 13 31 33 9 19 22 35 27 35 6 0 8 -6 4 -12 -6 -10 -3 -9 8 0
15 12 15 42 0 42 -3 0 -29 -24 -58 -54z"/>
<path d="M274 1266 c-5 -12 -10 -14 -19 -6 -9 8 -14 6 -18 -4 -4 -9 -2 -18 2
-21 12 -7 58 31 49 41 -4 4 -10 -1 -14 -10z"/>
<path d="M814 1240 c-9 -22 -25 -57 -35 -77 -11 -21 -15 -39 -9 -43 11 -7 -9
-71 -31 -97 -8 -10 -21 -30 -28 -45 -8 -15 -17 -25 -21 -23 -5 3 -10 -2 -13
-9 -3 -8 -1 -17 6 -20 8 -3 9 -7 2 -13 -6 -4 -22 -24 -35 -43 -14 -19 -40 -50
-58 -69 -19 -18 -31 -39 -28 -47 3 -8 2 -14 -3 -14 -10 0 -33 -49 -27 -59 3
-4 0 -13 -6 -21 -8 -12 -9 -11 -4 5 6 20 6 20 -9 1 -17 -23 -20 -61 -4 -50 19
12 80 114 74 124 -4 6 -1 9 6 8 6 -2 14 3 17 11 3 9 0 11 -9 6 -8 -5 -11 -4
-6 1 5 5 13 9 19 9 5 0 20 19 33 43 13 24 27 43 32 43 4 1 10 3 13 6 3 4 -1 3
-7 -1 -17 -10 -16 4 1 23 19 22 92 170 100 203 3 15 2 30 -4 33 -6 4 -4 12 5
21 8 9 15 23 15 33 0 9 4 21 9 27 10 11 32 74 25 74 -2 0 -11 -18 -20 -40z"/>
<path d="M459 1249 c-14 -28 -11 -31 16 -13 28 19 32 31 9 31 -8 0 -19 -8 -25
-18z"/>
<path d="M57 1246 c-3 -8 1 -17 10 -20 11 -4 14 -2 9 9 -3 8 -1 15 4 15 6 0
10 -4 10 -10 0 -5 4 -10 10 -10 5 0 7 7 4 15 -8 19 -40 20 -47 1z"/>
<path d="M618 1217 c-37 -60 -52 -90 -40 -83 12 7 75 117 70 121 -2 2 -15 -15
-30 -38z"/>
<path d="M1956 1242 c-4 -3 -78 -12 -132 -15 -17 -1 -12 -27 5 -27 9 0 49 7
89 15 51 11 78 12 92 5 13 -7 21 -7 25 0 3 6 0 12 -7 14 -26 8 -68 13 -72 8z"/>
<path d="M2178 1240 c-14 -32 -15 -46 -7 -62 5 -9 11 -36 14 -60 3 -24 8 -51
11 -62 4 -12 2 -16 -5 -12 -7 5 -8 1 -4 -10 4 -12 8 -14 11 -6 3 10 7 10 19 1
16 -14 15 -10 -13 101 -7 30 -15 71 -17 90 -2 21 -6 29 -9 20z"/>
<path d="M2210 1227 c0 -7 9 -18 21 -25 14 -9 19 -20 16 -33 -3 -10 -1 -17 4
-13 14 8 11 37 -7 62 -17 24 -34 29 -34 9z"/>
<path d="M869 1132 c-24 -53 -43 -103 -43 -109 1 -7 -2 -11 -6 -8 -4 2 -18
-19 -31 -47 -13 -29 -35 -64 -48 -78 -12 -14 -30 -38 -38 -55 -9 -16 -25 -41
-37 -54 -11 -13 -15 -21 -9 -17 17 10 6 -23 -17 -49 -21 -23 -49 -78 -60 -114
-4 -14 -11 -34 -16 -45 -14 -36 45 14 67 56 23 45 19 48 -17 11 l-27 -28 28
40 c16 22 32 42 35 45 5 5 32 60 35 70 1 8 99 154 112 168 7 7 9 20 6 29 -4
10 -2 14 4 10 6 -4 21 15 34 43 13 27 26 47 30 44 4 -2 5 6 1 18 -4 16 -2 19
8 13 9 -5 11 -4 6 4 -4 6 2 41 14 77 12 36 20 67 18 70 -3 2 -24 -40 -49 -94z"/>
<path d="M1523 1217 c8 -6 4 -7 -10 -4 -13 3 -23 1 -23 -3 0 -10 130 -18 149
-9 24 11 -7 22 -70 24 -37 0 -54 -2 -46 -8z"/>
<path d="M100 1198 c-19 -5 -50 -12 -67 -15 -20 -3 -33 -11 -33 -20 0 -11 8
-12 36 -7 19 4 71 7 115 8 68 1 81 4 94 23 15 21 14 21 -48 20 -34 0 -78 -4
-97 -9z"/>
<path d="M620 1124 c-23 -49 -48 -104 -56 -122 -9 -19 -13 -36 -10 -39 2 -3
12 12 21 33 34 83 51 120 72 163 12 25 20 47 18 50 -3 2 -23 -36 -45 -85z"/>
<path d="M1888 1181 c-45 -6 -78 -24 -67 -36 3 -2 23 0 45 6 21 6 69 9 105 6
36 -3 72 -1 80 4 15 9 14 10 -16 14 -11 1 -38 5 -60 7 -22 3 -61 3 -87 -1z"/>
<path d="M300 1137 c-14 -23 -30 -55 -37 -72 -11 -29 -12 -29 -13 -5 -3 48
-19 -10 -19 -71 -1 -75 12 -111 72 -193 48 -68 67 -110 67 -151 0 -17 -2 -17
-10 -5 -8 13 -10 13 -10 -2 0 -9 4 -19 9 -22 10 -7 21 17 21 45 0 29 17 23 23
-10 7 -35 -2 -73 -15 -65 -6 4 -5 -3 1 -15 13 -23 26 -29 18 -8 -2 6 0 20 5
31 12 23 -10 155 -23 135 -5 -9 -12 2 -20 34 -8 29 -16 42 -21 34 -6 -9 -8 -9
-8 1 0 6 -7 12 -16 12 -8 0 -20 14 -25 30 -6 17 -14 30 -18 30 -11 0 -31 71
-31 106 0 16 20 69 45 117 47 89 50 121 5 44z"/>
<path d="M491 1166 c-7 -9 -25 -47 -40 -86 -15 -38 -30 -67 -34 -64 -3 3 -3
-4 0 -17 5 -17 3 -20 -7 -14 -8 5 -11 4 -6 -3 7 -12 -12 -112 -25 -128 -6 -7
-5 -21 0 -35 7 -17 10 -19 10 -7 2 39 65 247 92 302 29 59 33 80 10 52z"/>
<path d="M511 1138 c-9 -24 -17 -56 -16 -73 1 -16 -4 -36 -12 -43 -7 -7 -13
-22 -13 -31 0 -10 -7 -37 -15 -60 -8 -23 -10 -39 -4 -36 13 9 0 -48 -14 -56
-5 -4 -6 -12 -2 -19 5 -9 4 -11 -3 -6 -8 5 -12 -5 -11 -31 0 -34 4 -28 40 61
21 55 39 107 39 115 0 9 11 46 24 84 13 37 20 67 16 67 -4 0 -11 7 -14 16 -6
15 -4 15 11 3 10 -7 15 -10 11 -5 -4 5 -2 18 4 30 10 19 10 20 -6 7 -14 -12
-16 -12 -10 3 14 36 -8 13 -25 -26z"/>
<path d="M717 1140 c-9 -24 -15 -45 -13 -47 6 -6 38 67 34 79 -2 6 -12 -9 -21
-32z"/>
<path d="M1233 1168 c-19 -25 -23 -48 -8 -48 8 0 15 -4 15 -10 0 -24 18 -7 22
20 5 34 -13 58 -29 38z"/>
<path d="M1500 1157 c-19 -7 -44 -18 -55 -25 -19 -11 -19 -11 6 -12 14 0 30 5
35 10 6 6 47 11 92 12 81 2 103 10 60 22 -37 9 -100 6 -138 -7z"/>
<path d="M1608 1115 c-2 -3 -20 -6 -38 -8 -18 -1 -35 -8 -38 -16 -3 -10 3 -11
29 -6 42 9 91 34 68 35 -9 0 -18 -2 -21 -5z"/>
<path d="M1235 1052 c-11 -9 -29 -28 -40 -42 l-20 -24 26 16 c15 10 31 13 40
8 11 -6 17 0 25 26 13 39 2 45 -31 16z"/>
<path d="M1820 1034 c0 -3 10 -14 22 -23 30 -25 19 -43 -49 -76 -53 -26 -56
-30 -33 -35 17 -4 26 -2 28 8 2 7 10 11 18 8 15 -6 40 16 59 49 10 16 13 15
40 -12 17 -16 38 -32 48 -36 10 -4 17 -12 16 -19 -4 -31 2 -48 16 -48 18 0 18
0 0 37 -26 52 -165 176 -165 147z"/>
<path d="M2409 1030 c13 -5 36 -19 52 -31 16 -11 29 -16 29 -11 0 14 -43 40
-76 47 -27 5 -27 5 -5 -5z"/>
<path d="M1598 973 c-47 -63 -65 -95 -63 -110 2 -7 3 -18 4 -24 2 -18 21 2 21
23 0 11 17 41 38 67 51 63 66 91 49 91 -7 0 -29 -21 -49 -47z"/>
<path d="M920 955 c-30 -31 -74 -65 -97 -76 -24 -12 -43 -22 -43 -24 0 -6 51
8 56 16 3 5 13 9 22 9 14 0 13 -2 -3 -14 -17 -12 -17 -13 8 -20 34 -8 77 2 77
19 0 7 -9 15 -20 18 -12 3 -18 1 -14 -5 4 -6 1 -9 -6 -6 -18 6 -25 28 -9 28
11 0 63 48 64 60 0 3 6 15 13 28 7 12 11 22 10 22 -2 0 -28 -25 -58 -55z"/>
<path d="M2188 988 c13 -7 22 -20 22 -35 0 -28 16 -31 23 -3 4 15 -2 24 -23
35 -16 8 -33 15 -37 14 -4 0 2 -5 15 -11z"/>
<path d="M1401 975 c0 -6 -12 -23 -26 -38 -14 -15 -22 -28 -18 -28 4 -1 14 -2
22 -3 16 -1 44 -70 42 -103 0 -12 4 -25 9 -28 6 -3 10 -20 10 -36 0 -17 9 -50
21 -75 22 -50 22 -83 -1 -94 -101 -46 -159 -79 -186 -106 -30 -30 -134 -189
-134 -205 0 -4 12 -10 26 -13 28 -7 54 7 35 18 -6 4 -11 14 -11 22 0 8 4 13 9
10 4 -3 14 14 22 37 15 44 112 150 149 162 11 4 20 11 20 16 0 5 13 9 28 9 28
0 62 26 62 48 0 6 8 17 18 24 15 10 42 66 42 85 0 10 -25 -5 -26 -15 -1 -7 -2
-16 -3 -22 -2 -22 -26 -8 -26 15 0 14 5 25 11 25 24 0 5 84 -22 94 -8 3 -14
13 -14 23 0 9 -10 37 -22 62 -12 25 -25 64 -29 86 -4 22 -7 35 -8 30z"/>
<path d="M2632 888 c4 -45 3 -76 -3 -84 -5 -7 -12 -22 -14 -34 -7 -36 -35 -72
-51 -66 -9 3 -12 1 -9 -4 3 -6 1 -10 -6 -10 -7 0 -10 -2 -7 -5 3 -3 -8 -20
-25 -38 -77 -82 -73 -114 5 -42 36 33 65 72 88 120 19 40 41 79 49 88 9 11 10
17 2 17 -7 0 -11 24 -11 65 0 47 -4 65 -13 65 -10 0 -12 -15 -5 -72z"/>
<path d="M1650 940 c0 -11 22 -27 50 -35 25 -8 25 -7 7 13 -19 21 -57 36 -57
22z"/>
<path d="M2194 928 c2 -9 -2 -19 -10 -22 -8 -3 -14 -13 -14 -23 0 -15 -2 -16
-10 -3 -5 8 -10 10 -10 4 0 -5 7 -19 15 -30 13 -18 14 -18 15 -1 0 10 4 16 9
13 13 -8 21 46 9 64 -8 13 -9 12 -4 -2z"/>
<path d="M595 881 c-8 -17 -20 -33 -26 -37 -8 -4 -9 -3 -5 4 4 7 3 12 -2 12
-10 0 -24 -41 -17 -49 5 -5 85 81 85 91 0 19 -21 5 -35 -21z"/>
<path d="M2085 853 c8 -27 15 -50 15 -52 0 -2 9 -1 20 2 13 3 20 0 20 -10 0
-8 5 -11 10 -8 8 5 7 11 -1 21 -6 7 -15 11 -20 8 -5 -3 -9 4 -9 15 0 12 -6 20
-12 19 -8 -2 -13 8 -13 25 1 15 -5 27 -12 27 -9 0 -9 -11 2 -47z"/>
<path d="M1573 857 c4 -10 7 -23 7 -28 0 -5 9 -9 20 -9 11 0 37 -9 60 -21 22
-11 59 -23 82 -25 l43 -4 -40 11 c-22 5 -57 21 -77 35 -20 14 -43 24 -50 22
-7 -3 -22 5 -32 16 -16 18 -18 18 -13 3z"/>
<path d="M2487 831 c-3 -14 -9 -35 -12 -46 -5 -13 4 -8 24 15 36 41 37 46 12
53 -14 3 -20 -2 -24 -22z"/>
<path d="M1875 830 c-16 -11 -37 -20 -46 -20 -9 0 -22 -6 -29 -14 -8 -10 13
-6 68 12 44 15 78 30 75 35 -8 13 -37 7 -68 -13z"/>
<path d="M793 824 c-18 -9 -33 -20 -33 -25 0 -12 17 -12 24 0 3 5 17 11 30 13
23 5 24 3 19 -31 -5 -34 -5 -35 12 -19 16 15 16 21 5 47 -14 36 -14 36 -57 15z"/>
<path d="M1470 821 c0 -27 26 -46 34 -25 4 11 2 15 -8 11 -10 -4 -12 0 -9 14
3 10 0 19 -6 19 -6 0 -11 -8 -11 -19z"/>
<path d="M1704 828 c-3 -4 19 -8 48 -7 57 1 55 5 -5 11 -21 2 -40 0 -43 -4z"/>
<path d="M2245 818 c-4 -16 -5 -34 -2 -42 3 -8 0 -17 -7 -19 -14 -5 -29 -47
-18 -47 4 0 8 -12 9 -27 1 -25 0 -26 -12 -10 -7 10 -16 14 -19 9 -7 -12 4 -52
15 -52 13 0 51 80 45 95 -2 7 0 17 5 22 5 5 5 28 0 53 -7 43 -8 43 -16 18z"/>
<path d="M716 757 c-11 -59 -47 -160 -66 -188 -11 -14 -20 -32 -22 -40 -2 -8
-12 -19 -23 -26 -14 -9 -16 -12 -5 -12 19 -1 45 15 46 29 1 5 2 13 3 18 0 4
15 8 32 8 17 1 35 7 40 15 16 25 9 30 -18 12 l-27 -18 23 32 c14 18 27 31 30
29 10 -6 12 148 3 162 -7 10 -11 4 -16 -21z"/>
<path d="M2003 763 c4 -38 15 -54 34 -51 9 2 17 -5 19 -16 1 -10 7 -23 13 -29
7 -7 9 -3 6 13 -5 28 -33 60 -48 56 -7 -2 -9 -1 -4 1 12 7 8 30 -8 43 -13 11
-15 8 -12 -17z"/>
<path d="M876 772 c-8 -13 23 -47 53 -57 26 -8 29 13 4 22 -10 4 -25 16 -34
27 -11 13 -18 16 -23 8z"/>
<path d="M2155 762 c-5 -13 -4 -14 6 -5 10 10 16 9 31 -4 17 -15 18 -15 18 3
0 26 -45 31 -55 6z"/>
<path d="M2484 704 c-15 -30 -32 -57 -36 -60 -4 -3 -8 -10 -8 -16 0 -18 30 14
53 56 31 59 38 76 28 76 -5 0 -21 -25 -37 -56z"/>
<path d="M1961 728 c0 -15 -5 -29 -10 -32 -5 -4 -7 -21 -4 -39 6 -40 13 -48
15 -16 0 13 2 29 3 34 2 6 3 16 4 23 0 7 6 10 11 7 6 -3 10 -1 10 4 0 6 -4 11
-9 11 -5 0 -12 8 -14 18 -3 11 -5 7 -6 -10z"/>
<path d="M1570 716 c0 -9 4 -16 9 -16 6 0 6 -12 1 -30 -5 -18 -5 -32 1 -35 5
-4 9 -2 9 4 0 12 32 2 42 -13 4 -6 8 -21 8 -33 0 -16 6 -23 20 -23 21 0 27 14
11 24 -5 4 -12 0 -15 -6 -4 -9 -5 -8 -4 2 1 8 -4 28 -10 43 -7 16 -12 34 -12
40 0 8 -3 8 -9 -1 -6 -10 -12 -5 -21 18 -15 35 -30 48 -30 26z"/>
<path d="M790 701 c0 -5 8 -12 18 -15 9 -4 42 -20 72 -36 64 -35 106 -39 115
-10 6 19 -12 66 -22 57 -2 -3 0 -14 6 -26 9 -16 8 -22 -6 -29 -18 -9 -48 1
-133 48 -40 22 -50 24 -50 11z"/>
<path d="M1768 673 c-10 -2 -18 -8 -18 -13 0 -5 8 -14 18 -19 14 -7 17 -5 18
15 1 13 1 23 0 23 0 -1 -9 -3 -18 -6z"/>
<path d="M305 640 c-6 -10 19 -65 35 -75 5 -3 10 1 10 9 0 8 -4 18 -10 21 -5
3 -10 17 -10 31 0 24 -14 32 -25 14z"/>
<path d="M2150 614 c0 -15 -5 -22 -12 -19 -8 3 -14 -4 -14 -20 -2 -34 11 -32
28 5 7 17 19 30 25 30 21 0 15 17 -7 23 -16 4 -20 0 -20 -19z"/>
<path d="M1576 597 c-5 -15 -16 -32 -25 -38 -13 -8 -12 -9 6 -4 17 5 21 2 19
-12 -2 -10 -1 -12 1 -6 3 10 10 10 26 2 19 -9 20 -8 5 3 -9 8 -18 30 -20 49
l-4 34 -8 -28z"/>
<path d="M1993 601 c-8 -12 -7 -22 2 -35 8 -11 15 -13 20 -7 3 6 1 11 -4 11
-6 0 -11 5 -11 11 0 6 7 9 15 5 19 -7 19 1 2 19 -11 11 -15 10 -24 -4z"/>
<path d="M2375 537 c-32 -18 -69 -41 -81 -52 -24 -23 -38 -55 -24 -55 6 0 10
6 10 13 0 23 32 44 93 63 31 10 57 21 57 26 0 4 7 8 15 8 9 0 12 6 9 15 -8 19
-8 19 -79 -18z"/>
<path d="M690 530 c-8 -5 -12 -10 -8 -10 14 0 -26 -40 -41 -40 -25 0 -121 -33
-121 -42 0 -5 14 -11 31 -15 17 -3 33 -12 36 -19 2 -7 39 -30 81 -50 105 -50
135 -74 171 -139 17 -30 36 -55 41 -55 15 0 13 4 -36 77 -56 83 -74 104 -84
98 -4 -2 -17 5 -29 16 -12 12 -29 22 -37 23 -7 1 -41 17 -74 36 -43 24 -56 36
-45 40 21 7 75 5 97 -5 14 -5 16 -2 12 24 -7 41 18 51 60 26 17 -10 48 -27 68
-37 21 -10 45 -30 54 -44 9 -14 22 -23 29 -20 10 3 89 -51 105 -73 8 -11 64
-46 75 -47 6 0 18 -4 28 -9 40 -17 24 4 -30 40 -32 21 -78 55 -103 75 -60 49
-123 91 -193 129 -64 34 -66 35 -87 21z"/>
<path d="M1468 512 c-5 -17 17 -61 25 -51 3 2 7 17 11 33 7 27 6 28 -10 15
-10 -8 -15 -9 -11 -2 4 6 3 14 -2 17 -5 3 -11 -2 -13 -12z"/>
<path d="M1923 490 c-7 -17 -7 -32 -2 -36 5 -3 9 2 9 10 0 9 6 15 13 14 14 -3
17 34 2 39 -6 2 -16 -10 -22 -27z"/>
<path d="M2870 511 c0 -10 110 -101 123 -101 4 0 7 6 7 13 -1 21 -130 109
-130 88z"/>
<path d="M17 499 c10 -4 34 -8 53 -8 19 0 43 4 53 8 11 4 -13 7 -53 7 -40 0
-64 -3 -53 -7z"/>
<path d="M400 500 c0 -5 5 -10 11 -10 8 0 8 -4 1 -12 -6 -7 -13 -30 -17 -51
-11 -57 -30 -60 -22 -4 11 81 -26 50 -39 -32 -6 -36 -4 -41 13 -41 23 0 40 19
68 74 10 21 21 33 23 27 6 -18 22 -12 22 9 0 12 -12 26 -30 35 -17 9 -30 11
-30 5z"/>
<path d="M496 498 c3 -4 -2 -11 -10 -14 -28 -11 -18 -27 12 -19 15 4 32 8 39
9 7 1 16 6 20 11 4 4 2 5 -4 1 -7 -4 -13 -3 -13 2 0 5 -11 12 -25 14 -13 3
-22 1 -19 -4z"/>
<path d="M1982 503 c-18 -7 -4 -23 19 -23 12 0 19 5 17 12 -5 14 -18 18 -36
11z"/>
<path d="M0 460 c0 -5 9 -10 20 -10 11 0 20 -4 20 -10 0 -5 6 -7 13 -5 16 7
70 -43 85 -77 11 -26 10 -28 -13 -28 -14 0 -46 10 -70 21 -58 27 -71 18 -16
-11 37 -19 53 -32 34 -29 -5 1 -23 1 -40 0 -27 -1 -33 -5 -33 -22 0 -15 4 -19
16 -15 50 19 158 29 203 18 25 -6 63 -14 84 -18 24 -4 44 -15 53 -29 8 -13 26
-26 40 -29 39 -10 29 -48 -16 -59 -19 -4 -45 -11 -58 -14 -16 -4 -31 2 -48 17
-13 13 -24 19 -24 13 0 -6 -11 -14 -25 -17 -14 -4 -23 -11 -20 -16 9 -15 -8
-12 -32 5 -12 8 -24 25 -26 38 l-4 22 -2 -23 c-1 -16 -5 -21 -13 -16 -9 5 -9
2 1 -9 7 -9 17 -17 21 -17 12 0 164 -106 180 -125 7 -8 19 -15 27 -15 12 0 13
3 4 14 -9 11 -9 15 1 18 7 3 -5 11 -27 18 -59 19 -61 26 -13 44 l43 16 -45 -2
c-72 -2 -92 1 -87 15 2 8 27 12 73 12 38 1 86 7 107 14 32 11 37 16 32 34 -7
22 -39 57 -72 76 -17 10 -17 12 0 25 16 13 16 14 -7 18 -14 3 -31 1 -38 -3
-19 -12 -52 -11 -85 3 -15 7 -34 12 -42 13 -23 1 -60 57 -51 80 7 18 9 16 24
-15 9 -19 13 -25 10 -13 -4 16 2 26 21 39 33 22 32 36 -2 23 -38 -15 -64 -17
-87 -6 -14 7 -15 11 -6 17 8 5 -7 12 -39 19 -64 14 -71 14 -71 1z"/>
<path d="M290 460 c-8 -5 -12 -10 -7 -10 11 0 -32 -80 -43 -80 -15 0 -12 -36
5 -50 9 -8 28 -10 50 -6 39 8 46 21 15 31 -22 7 -27 54 -10 99 11 29 11 29
-10 16z"/>
<path d="M443 418 c-19 -25 -24 -38 -14 -38 6 0 11 7 11 15 0 17 16 20 25 5 3
-5 1 -10 -6 -10 -7 0 -5 -8 6 -20 10 -11 23 -20 28 -20 6 0 2 6 -9 14 -10 8
-16 17 -12 21 3 4 35 -12 69 -34 70 -45 68 -45 89 -31 12 8 9 10 -13 10 -16 0
-26 4 -22 10 3 5 -10 16 -29 24 -19 8 -41 24 -48 35 -13 22 -38 29 -38 10 0
-5 -5 -7 -10 -4 -6 4 -8 11 -5 16 9 14 -11 11 -22 -3z"/>
<path d="M1800 421 c0 -7 -7 -10 -19 -6 -10 3 -24 -1 -31 -10 -11 -13 -9 -15
14 -13 28 3 54 24 42 35 -3 3 -6 1 -6 -6z"/>
<path d="M2045 370 c-16 -16 -25 -30 -22 -30 14 0 55 31 61 46 9 23 -8 16 -39
-16z"/>
<path d="M1538 362 c-10 -2 -18 -7 -18 -12 0 -5 8 -6 18 -3 15 6 15 5 3 -10
-12 -15 -11 -17 8 -17 13 0 21 -6 21 -17 0 -10 26 -41 58 -70 31 -28 71 -74
87 -102 31 -53 59 -65 70 -32 10 32 117 135 162 157 23 12 38 25 35 30 -10 13
-73 14 -65 0 4 -6 -1 -5 -10 3 -9 7 -14 18 -10 24 3 5 1 7 -5 4 -13 -9 -4 -47
12 -47 6 0 -18 -27 -52 -60 -35 -32 -61 -63 -58 -68 5 -8 -14 -22 -30 -22 -2
0 -16 18 -30 40 -15 22 -30 37 -34 35 -5 -3 -24 11 -44 30 -20 19 -34 35 -32
35 3 0 -6 11 -20 25 -22 22 -24 28 -12 43 12 16 11 16 -6 2 -18 -13 -19 -13
-14 0 7 19 -12 37 -34 32z"/>
<path d="M1938 335 c3 -18 9 -24 19 -21 8 3 19 6 24 6 6 0 7 5 4 10 -3 6 2 10
11 10 15 0 16 2 5 13 -10 10 -14 8 -23 -6 -9 -17 -11 -17 -28 -2 -16 15 -17
14 -12 -10z"/>
<path d="M2222 336 c-19 -6 -38 -20 -44 -30 -15 -27 -28 -77 -18 -71 5 3 11
19 15 35 5 24 17 36 51 51 62 30 60 39 -4 15z"/>
<path d="M880 327 c0 -7 8 -22 18 -33 11 -11 24 -33 31 -49 l11 -30 -6 30 c-5
28 -40 95 -50 95 -2 0 -4 -6 -4 -13z"/>
<path d="M680 321 c0 -5 6 -16 13 -23 7 -7 32 -39 56 -71 24 -32 46 -55 49
-53 5 5 -16 34 -80 112 -21 25 -38 41 -38 35z"/>
<path d="M1660 323 c0 -5 -13 -8 -30 -5 -18 3 -30 0 -30 -7 0 -6 6 -11 14 -11
8 0 21 -3 29 -6 14 -5 33 23 22 34 -3 3 -5 1 -5 -5z"/>
<path d="M2110 290 c-19 -15 -21 -20 -8 -20 9 0 18 -5 20 -10 2 -6 8 3 15 20
13 35 8 37 -27 10z"/>
<path d="M535 228 c-27 -40 -60 -86 -74 -103 l-26 -30 32 29 c17 15 51 59 75
97 23 37 46 68 49 69 11 0 84 -62 82 -70 -1 -4 10 -18 25 -31 l27 -24 -23 26
c-12 14 -20 28 -16 31 5 6 -83 78 -96 78 -4 0 -29 -33 -55 -72z"/>
<path d="M150 250 c0 -9 20 -52 38 -80 2 -2 7 2 12 10 5 8 6 17 2 20 -4 3 -18
18 -30 34 -12 16 -22 23 -22 16z"/>
<path d="M1236 251 c-7 -12 3 -41 15 -41 4 0 13 -9 20 -21 9 -17 7 -25 -9 -42
-12 -13 -22 -41 -24 -67 -3 -25 -8 -53 -12 -63 -6 -13 -3 -17 12 -17 15 0 21
9 26 38 4 20 16 60 26 88 18 49 18 52 1 80 -23 38 -47 58 -55 45z"/>
<path d="M1566 220 c22 -22 53 -55 70 -73 42 -43 56 -72 49 -100 -6 -23 18
-57 31 -44 12 12 9 92 -3 90 -12 -3 -58 63 -58 82 0 6 -6 10 -13 10 -7 0 -28
17 -47 38 -19 20 -41 37 -51 37 -11 0 -5 -12 22 -40z"/>
<path d="M950 240 c0 -19 40 -50 63 -49 l22 0 -22 9 c-12 5 -27 18 -33 29 -11
22 -30 28 -30 11z"/>
<path d="M1977 235 c-15 -8 -25 -10 -22 -5 3 6 -1 7 -8 4 -8 -3 -17 -14 -20
-25 -3 -10 -10 -19 -17 -19 -6 0 -8 6 -5 13 4 6 -16 -13 -44 -43 -46 -50 -91
-124 -91 -150 0 -16 30 -12 36 5 4 8 9 13 14 10 4 -2 5 6 3 18 -3 17 9 38 49
81 29 32 62 62 73 67 11 5 35 21 54 34 37 27 23 34 -22 10z"/>
<path d="M1183 199 c-18 -12 -33 -25 -33 -30 0 -5 -4 -9 -10 -9 -5 0 -7 7 -4
15 5 11 -1 15 -17 15 -14 0 -19 -3 -13 -8 20 -13 25 -59 9 -72 -20 -17 -67
-110 -55 -110 5 0 19 15 31 33 13 17 49 63 81 100 74 87 78 109 11 66z"/>
<path d="M952 175 c6 -13 15 -22 19 -19 5 3 9 3 9 0 0 -2 3 -12 7 -22 4 -11 3
-15 -4 -11 -7 5 -9 -1 -5 -15 3 -13 7 -17 10 -10 3 10 7 10 18 1 11 -9 14 -8
13 2 -1 23 -36 74 -48 72 -6 -2 -11 4 -11 12 0 8 -4 15 -10 15 -6 0 -5 -10 2
-25z"/>
<path d="M2125 145 c-9 -25 -32 -68 -50 -96 -19 -27 -28 -49 -22 -49 16 0 62
74 81 134 21 62 14 71 -9 11z"/>
<path d="M841 155 c2 -5 11 -27 19 -47 8 -21 18 -38 23 -38 5 0 18 -10 29 -22
11 -13 9 -6 -6 14 -14 20 -26 40 -26 43 0 4 -10 19 -21 33 -12 15 -20 23 -18
17z"/>
<path d="M1148 66 c-27 -30 -48 -57 -48 -60 0 -3 21 -5 48 -4 l47 0 2 59 c1
32 1 59 0 59 -1 0 -23 -25 -49 -54z"/>
<path d="M50 45 c10 -12 9 -15 -6 -15 -23 0 -8 -15 25 -25 16 -5 21 -4 17 4
-4 6 -2 11 3 11 6 0 11 -4 11 -10 0 -5 10 -10 21 -10 21 0 21 1 -3 20 -14 11
-38 24 -53 30 -25 9 -26 9 -15 -5z"/>
</g>
</svg>
