<?xml version="1.0" standalone="no"?>
<!DOCTYPE svg PUBLIC "-//W3C//DTD SVG 20010904//EN"
 "http://www.w3.org/TR/2001/REC-SVG-20010904/DTD/svg10.dtd">
<svg version="1.0" xmlns="http://www.w3.org/2000/svg"
 width="900.000000pt" height="579.000000pt" viewBox="0 0 900.000000 579.000000"
 preserveAspectRatio="xMidYMid meet">
<metadata>
Created by potrace 1.10, written by Peter Selinger 2001-2011
</metadata>
<g transform="translate(0.000000,579.000000) scale(0.100000,-0.100000)"
fill="#000000" stroke="none">
<path d="M0 4690 l0 -1100 56 6 c30 4 71 15 90 25 23 11 43 15 61 10 26 -7 45
-31 24 -31 -6 0 -19 -9 -29 -21 -14 -14 -46 -25 -111 -37 l-92 -16 3 -135 3
-136 102 -12 c57 -6 107 -14 113 -18 17 -10 11 -25 -10 -25 -11 0 -29 -5 -39
-12 -15 -9 -24 -8 -44 5 -33 21 -130 13 -125 -11 4 -18 17 -25 90 -46 47 -14
65 -15 105 -5 73 18 85 26 73 49 -5 10 -10 23 -10 29 0 17 46 13 60 -4 11 -14
15 -14 32 2 16 14 36 17 98 16 l78 -1 31 38 c17 22 31 45 31 52 0 22 -36 37
-74 31 -45 -7 -70 10 -55 38 16 30 85 69 123 69 38 0 97 22 115 43 21 26 60
110 55 119 -3 4 -18 8 -33 8 -16 0 -44 7 -64 15 -19 8 -37 12 -40 9 -7 -7
-309 -35 -315 -29 -12 12 10 35 34 35 14 0 54 8 88 17 44 12 96 16 185 15 138
-2 147 1 208 67 37 41 42 70 13 78 -20 5 -28 23 -10 23 6 0 10 13 10 29 0 21
-8 36 -30 51 -19 13 -30 30 -30 45 0 33 13 38 34 14 11 -14 23 -18 34 -14 37
16 63 17 85 2 21 -14 25 -13 46 3 l24 17 -22 6 c-29 7 -26 35 4 43 18 4 32 1
45 -11 20 -18 50 -15 50 5 0 6 -5 21 -11 32 -10 18 -8 24 7 37 11 9 32 35 47
59 18 28 34 42 43 38 7 -3 41 11 75 31 42 25 72 36 94 35 21 -2 38 4 50 18 10
11 31 20 46 20 31 0 63 26 52 43 -4 7 -15 18 -25 25 -24 17 -23 30 4 52 25 20
38 11 38 -27 0 -37 46 -30 84 12 22 24 35 32 42 25 7 -7 20 -7 40 2 l29 12
-32 4 c-38 4 -39 7 -17 50 17 36 21 37 47 17 13 -9 17 -20 12 -34 -5 -16 -3
-19 8 -15 9 3 18 17 21 30 5 20 12 25 33 22 21 -2 29 -10 35 -36 11 -40 24
-34 40 19 6 23 19 44 27 47 9 3 31 16 50 29 32 22 35 22 52 7 10 -9 27 -14 38
-11 15 3 21 -1 23 -17 3 -24 24 -25 116 -7 77 15 114 51 53 51 -37 0 -50 18
-19 24 73 15 105 20 118 18 8 -2 67 -6 131 -10 108 -7 120 -10 175 -43 76 -45
111 -57 190 -65 56 -6 67 -4 78 11 12 16 18 17 59 7 25 -7 60 -12 77 -12 17 0
42 -7 55 -16 16 -10 34 -14 54 -9 27 6 31 3 37 -19 3 -14 21 -35 40 -47 34
-20 48 -54 19 -43 -8 4 -15 10 -15 15 0 12 -47 12 -54 0 -3 -5 4 -21 16 -36
15 -19 27 -26 44 -22 26 5 58 -32 48 -56 -4 -11 8 -16 45 -21 56 -7 63 -14 66
-65 6 -77 22 -119 61 -157 38 -38 51 -53 122 -139 190 -231 232 -269 282 -254
14 4 40 7 58 8 18 1 44 8 57 17 23 15 25 15 31 -2 29 -89 51 -127 75 -136 20
-7 25 -14 22 -29 -3 -10 2 -54 12 -97 9 -42 19 -87 21 -99 7 -35 31 -27 44 13
18 52 9 203 -13 234 -9 14 -17 30 -17 38 0 21 -103 140 -128 148 -77 22 -31
125 57 128 35 1 36 2 45 49 7 43 6 51 -14 72 -21 22 -22 28 -12 67 7 24 16 79
21 123 14 109 46 263 64 305 14 33 30 73 61 158 68 183 87 224 133 289 53 74
182 206 264 269 33 25 74 59 91 75 18 16 37 29 42 29 5 0 17 6 25 14 14 12 74
46 161 92 14 7 43 20 65 29 22 9 54 22 70 29 73 32 93 39 145 53 30 8 73 17
95 19 22 3 55 7 72 10 l33 5 -35 35 c-19 19 -35 40 -35 45 0 7 -10 9 -25 5
-18 -5 -27 -1 -36 16 l-11 21 -18 -23 c-20 -26 -51 -22 -48 7 5 36 -14 103
-28 103 -8 0 -14 -10 -14 -22 0 -35 -11 -68 -20 -63 -5 3 -11 23 -15 45 l-7
40 -2554 0 -2554 0 0 -1100z m539 914 c-6 -8 -15 -14 -20 -14 -14 0 -11 28 4
33 20 7 29 -4 16 -19z m-397 -129 c-6 -42 -10 -46 -37 -33 -29 13 -32 33 -7
47 25 16 47 8 44 -14z m3243 -51 l27 -46 -21 -21 -21 -21 -21 20 c-19 20 -34
88 -23 106 12 19 34 5 59 -38z m-2315 -115 c0 -49 -35 -75 -60 -44 -20 24 3
65 35 65 19 0 25 -5 25 -21z m1674 -99 c-1 -19 -3 -60 -4 -90 -1 -30 -10 -79
-21 -108 -10 -29 -19 -61 -19 -71 0 -10 -9 -26 -20 -36 -11 -10 -20 -26 -20
-37 0 -22 -14 -23 -51 -1 -35 21 -53 66 -38 95 6 11 9 35 7 53 l-4 34 50 -6
c64 -8 78 7 63 73 -8 34 -8 51 1 65 7 10 12 27 12 37 0 24 10 34 30 30 10 -3
15 -14 14 -38z m-1615 -168 c9 -18 -5 -81 -22 -98 -4 -4 -7 -19 -7 -33 0 -14
-5 -33 -11 -41 -9 -13 -11 -13 -16 -1 -3 8 -16 25 -29 37 -20 21 -21 27 -12
66 18 74 74 113 97 70z m2265 -6 c21 -7 43 -21 48 -30 20 -35 -36 -81 -67 -56
-12 10 -18 10 -31 -1 -14 -11 -19 -10 -35 10 -23 28 -24 54 -3 75 19 19 37 20
88 2z m-940 -28 c14 -22 -12 -52 -37 -42 -17 6 -23 44 -10 58 11 11 35 3 47
-16z m599 -26 c27 -28 35 -56 18 -66 -5 -3 -14 1 -21 9 -7 8 -20 15 -30 15
-56 0 -55 -103 2 -169 16 -18 27 -40 24 -48 -3 -8 -6 -21 -6 -28 0 -7 -7 -15
-15 -19 -25 -9 -45 4 -45 30 0 28 -3 29 -36 8 -39 -26 -49 -7 -50 94 0 48 -5
98 -11 112 -14 33 0 58 35 66 15 3 36 9 47 14 36 16 61 10 88 -18z m-2413 -7
c0 -9 7 -18 15 -21 19 -8 40 -73 27 -86 -6 -6 -24 -6 -51 2 -36 9 -41 14 -41
39 0 16 7 34 15 41 8 6 14 15 13 18 -1 15 2 22 12 22 6 0 10 -7 10 -15z m293
-7 c7 -21 -3 -37 -19 -31 -8 3 -26 -2 -40 -12 -33 -22 -39 -14 -19 24 12 24
22 31 44 31 16 0 31 -6 34 -12z m837 -8 c23 -23 26 -50 6 -50 -23 0 -70 45
-62 58 11 18 34 14 56 -8z m113 -143 c-10 -30 -21 -47 -32 -47 -16 0 -46 -14
-87 -40 -18 -11 -24 -9 -47 14 -17 17 -34 25 -45 22 -9 -3 -39 -8 -67 -12 -58
-8 -95 -29 -95 -54 0 -10 -6 -22 -13 -28 -17 -14 -87 8 -87 27 0 8 -8 23 -17
33 -15 16 -15 25 -5 64 7 24 12 56 12 69 0 26 4 29 52 39 23 5 34 -1 70 -39
23 -25 48 -45 54 -45 6 0 19 11 28 25 13 20 25 25 54 25 20 -1 57 -1 82 0 25
1 55 -2 67 -5 18 -6 24 -1 38 31 l17 39 18 -36 c17 -33 17 -38 3 -82z m297 88
c0 -8 -4 -17 -10 -20 -6 -4 -10 5 -10 20 0 15 4 24 10 20 6 -3 10 -12 10 -20z
m630 -37 c0 -5 -4 -8 -10 -8 -5 0 -10 10 -10 23 0 18 2 19 10 7 5 -8 10 -18
10 -22z m-1470 -33 c0 -8 -4 -15 -10 -15 -5 0 -10 7 -10 15 0 8 5 15 10 15 6
0 10 -7 10 -15z m840 -25 c0 -27 -27 -50 -61 -50 -36 0 -38 16 -4 24 14 4 31
18 37 31 12 27 28 24 28 -5z m-862 -72 c15 -15 15 -43 0 -85 -15 -42 -32 -43
-26 -1 3 18 1 40 -5 49 -11 17 -4 49 11 49 4 0 13 -5 20 -12z m918 -9 c3 -6
-4 -22 -17 -35 -21 -21 -27 -22 -49 -11 -41 21 -38 45 7 50 21 2 41 4 45 5 4
1 10 -3 14 -9z m-1116 -26 c0 -10 -9 -38 -20 -62 -15 -31 -18 -54 -14 -80 7
-40 6 -39 -49 30 -20 25 -37 51 -37 58 0 6 15 11 34 11 29 0 37 5 48 30 14 33
38 41 38 13z m2317 -60 c-24 -24 -44 -4 -27 27 11 21 13 21 28 6 15 -15 15
-17 -1 -33z m-2225 -15 c-9 -9 -12 -7 -12 12 0 19 3 21 12 12 9 -9 9 -15 0
-24z m1957 -7 c29 -36 40 -71 24 -71 -27 1 -89 31 -91 45 -6 27 7 65 22 65 8
0 28 -18 45 -39z m-2821 -7 c8 -14 14 -15 47 -4 36 12 40 11 57 -10 32 -39 16
-77 -17 -40 -10 11 -27 20 -38 20 -16 0 -18 -5 -13 -25 5 -19 2 -27 -11 -32
-10 -3 -30 -17 -45 -31 -31 -29 -34 -24 -16 25 8 23 9 36 2 41 -13 9 -44 54
-44 64 0 16 69 8 78 -8z m1777 6 c-3 -5 -15 -10 -26 -10 -10 0 -19 5 -19 10 0
6 12 10 26 10 14 0 23 -4 19 -10z m-1475 -35 c0 -19 -11 -19 -36 0 -18 14 -18
14 9 15 17 0 27 -5 27 -15z m270 -134 c0 -12 -20 -25 -27 -18 -7 7 6 27 18 27
5 0 9 -4 9 -9z m-756 -504 c-4 -89 -8 -164 -10 -166 -2 -2 -13 7 -25 20 -18
21 -20 32 -14 84 3 33 6 77 6 98 0 21 6 52 14 67 8 16 15 38 15 50 0 12 4 18
11 15 7 -5 8 -59 3 -168z m3481 83 c10 -16 -3 -29 -25 -23 -13 4 -20 14 -20
30 0 20 3 22 19 13 11 -5 23 -15 26 -20z m-3187 -227 c2 -11 12 -29 23 -39 10
-9 19 -23 19 -31 0 -24 -43 -13 -75 20 -30 31 -31 34 -17 55 18 28 46 25 50
-5z m3377 18 c3 -5 0 -13 -5 -16 -16 -10 -62 4 -55 15 8 13 52 13 60 1z
m-3608 -458 c6 -18 -37 -37 -51 -23 -8 8 -6 15 9 26 21 15 37 14 42 -3z"/>
<path d="M1434 4726 c-8 -22 3 -33 18 -18 9 9 9 15 0 24 -9 9 -13 7 -18 -6z"/>
<path d="M6265 5110 c-4 -6 -3 -16 3 -22 6 -6 12 -6 17 2 4 6 3 16 -3 22 -6 6
-12 6 -17 -2z"/>
<path d="M6510 5063 c0 -18 -5 -55 -11 -82 l-11 -50 -31 22 c-18 12 -43 31
-57 43 -45 38 -128 51 -146 23 -3 -5 -13 -9 -22 -9 -9 0 -22 -12 -29 -26 -10
-21 -9 -31 8 -57 11 -18 25 -44 31 -59 7 -16 18 -28 25 -28 7 0 13 -3 13 -7 0
-5 23 -33 50 -63 30 -33 50 -64 50 -79 0 -13 11 -36 25 -53 14 -16 25 -35 25
-43 0 -7 11 -20 25 -29 14 -9 25 -23 25 -31 0 -7 9 -16 20 -20 16 -5 18 -9 7
-26 -14 -22 -37 -25 -37 -5 0 13 -20 26 -40 26 -4 0 -11 -22 -15 -50 -7 -49
-20 -61 -42 -39 -8 8 -19 4 -40 -15 -20 -19 -36 -26 -56 -23 -38 5 -41 -5 -17
-50 26 -48 26 -83 2 -83 -27 0 -62 -42 -56 -66 3 -12 -2 -27 -15 -38 -27 -25
-26 -45 4 -89 21 -32 22 -38 9 -45 -11 -6 -17 -28 -19 -70 -4 -83 -10 -96 -56
-128 -26 -18 -39 -33 -36 -44 3 -13 -9 -20 -57 -31 -34 -7 -86 -15 -116 -16
-107 -3 -215 -15 -227 -25 -7 -6 -30 -7 -52 -3 -55 9 -199 -21 -228 -47 -12
-12 -46 -29 -75 -39 -47 -16 -53 -21 -56 -49 -2 -17 5 -50 16 -73 11 -23 23
-55 27 -72 12 -55 42 -70 76 -39 9 8 36 17 59 19 23 3 49 10 56 16 8 6 20 9
28 6 9 -4 47 5 87 18 91 31 298 40 324 15 22 -22 135 -12 171 16 23 17 28 28
29 69 0 38 -3 49 -17 53 -22 5 -22 10 -4 54 10 24 29 41 59 57 25 13 61 37 82
53 34 28 35 31 20 48 -23 26 -8 50 53 81 42 22 52 24 68 12 10 -7 26 -13 36
-13 10 0 25 -11 33 -24 18 -27 15 -65 -10 -156 -23 -82 -19 -158 11 -237 30
-78 47 -153 47 -203 0 -61 -14 -164 -29 -203 -8 -20 -14 -54 -14 -73 0 -20 -7
-52 -16 -70 -15 -31 -20 -34 -44 -29 -21 5 -32 1 -43 -15 -9 -12 -23 -19 -38
-18 -21 3 -24 -2 -30 -46 -11 -69 -15 -76 -46 -76 -34 0 -83 -56 -83 -96 0
-15 -9 -42 -21 -61 -16 -25 -19 -42 -15 -68 9 -45 -24 -112 -59 -121 -19 -5
-24 -11 -20 -25 5 -15 1 -19 -17 -19 -13 0 -29 5 -36 12 -18 18 -42 -9 -42
-48 0 -18 -4 -36 -10 -39 -5 -3 -10 -22 -10 -41 0 -19 -3 -34 -6 -34 -3 0 -20
12 -37 26 -29 24 -32 25 -44 8 -7 -10 -13 -36 -13 -57 0 -28 -8 -51 -26 -74
-18 -24 -24 -41 -20 -58 5 -19 1 -27 -16 -36 -35 -19 -99 -81 -109 -106 -17
-44 18 -74 40 -35 9 15 10 15 11 -4 0 -12 -6 -27 -13 -33 -8 -6 -12 -23 -9
-41 4 -25 1 -30 -17 -30 -11 0 -26 9 -33 20 -7 11 -18 20 -25 20 -15 0 -33
-32 -33 -59 0 -34 -28 -24 -41 14 -14 36 -46 51 -34 16 3 -11 2 -22 -2 -24
-16 -10 -45 22 -52 55 -5 25 -15 37 -44 51 -21 10 -37 24 -37 34 0 15 -2 14
-16 -3 -12 -15 -14 -15 -10 -2 2 9 -4 24 -15 34 -17 15 -19 26 -14 61 7 47 -1
53 -34 26 -27 -22 -35 -97 -11 -98 23 0 63 -42 57 -59 -3 -8 -21 -16 -39 -18
-24 -2 -34 -9 -36 -23 -6 -31 -18 -38 -42 -25 -30 16 -54 -4 -45 -38 6 -23 4
-24 -22 -19 -34 7 -49 -1 -54 -26 -7 -31 -24 -19 -24 17 0 19 -8 43 -17 53
-10 11 -18 32 -18 47 0 29 -38 88 -52 80 -4 -3 -8 -21 -8 -40 0 -36 -16 -46
-27 -16 -3 9 -18 33 -33 52 -26 33 -43 76 -54 130 -6 27 -78 127 -140 194 -23
25 -36 48 -36 66 0 32 -23 56 -42 44 -7 -5 -21 -18 -31 -31 -10 -13 -27 -23
-38 -23 -29 0 -61 37 -54 61 4 11 2 25 -3 32 -5 7 -12 27 -16 45 -6 33 -21 58
-82 130 -17 20 -37 54 -43 74 -7 20 -20 40 -29 43 -9 3 -27 20 -40 39 -13 19
-41 53 -63 77 -21 23 -39 52 -39 65 0 12 -5 35 -10 50 l-11 27 -40 -39 c-22
-21 -59 -60 -80 -86 -34 -40 -39 -50 -29 -68 6 -11 21 -20 33 -20 30 0 67 -27
67 -48 0 -9 9 -41 20 -70 11 -29 20 -72 20 -97 0 -31 5 -47 17 -54 16 -8 16
-14 4 -60 -15 -58 -9 -73 23 -65 22 5 23 2 29 -53 8 -71 33 -173 47 -187 5 -5
10 -28 10 -51 0 -22 7 -50 15 -62 9 -12 22 -41 30 -63 17 -49 7 -76 -47 -130
-33 -33 -145 -90 -178 -90 -10 0 -20 -7 -24 -15 -3 -8 -12 -15 -21 -15 -9 0
-26 -6 -38 -14 -12 -8 -51 -20 -87 -26 -36 -6 -89 -23 -118 -38 -49 -24 -53
-29 -48 -54 6 -29 -23 -68 -74 -100 -14 -9 -41 -46 -60 -83 -47 -90 -56 -105
-69 -118 -6 -6 -11 -19 -11 -29 0 -10 -3 -18 -7 -18 -8 0 -26 -28 -66 -100
-11 -19 -26 -39 -33 -43 -8 -4 -14 -14 -14 -22 0 -8 -6 -12 -14 -9 -15 6 -31
-39 -21 -57 4 -5 1 -8 -6 -7 -7 2 -14 -7 -15 -18 -1 -26 -26 -84 -36 -84 -20
0 -307 183 -388 248 -52 42 -115 92 -140 111 -25 19 -47 38 -50 41 -25 30
-261 190 -279 190 -5 0 -14 6 -18 13 -10 16 -105 74 -135 83 -53 14 -123 62
-151 101 l-30 43 14 107 c9 64 14 188 14 303 0 170 -2 200 -18 230 -10 19 -24
53 -31 76 -12 36 -11 45 6 80 24 46 66 111 91 139 10 11 25 34 34 52 8 18 27
45 41 60 43 45 69 84 101 148 16 33 46 85 65 115 20 30 36 63 36 73 0 10 9 21
19 24 16 4 18 11 14 39 -4 22 -2 34 6 34 6 0 11 -4 11 -10 0 -5 5 -10 11 -10
7 0 8 18 4 55 -5 38 -4 55 4 55 6 0 11 -4 11 -10 0 -5 5 -10 11 -10 7 0 9 11
6 28 -12 57 -12 65 -1 69 6 2 14 -6 18 -19 5 -19 8 -20 16 -8 5 8 10 23 10 33
0 10 7 25 15 33 19 20 19 48 0 64 -19 16 -19 43 -1 78 7 15 17 52 21 82 4 30
11 63 16 72 5 9 6 24 3 33 -5 12 -11 9 -30 -17 -13 -17 -24 -39 -24 -49 0 -9
-7 -22 -15 -29 -8 -7 -15 -18 -15 -25 0 -12 -18 -52 -42 -95 -4 -8 -11 -22
-14 -30 -13 -35 -153 -324 -174 -360 -5 -8 -32 -62 -61 -120 -74 -152 -86
-172 -116 -200 -27 -25 -121 -145 -159 -205 -35 -54 -53 -68 -72 -53 -9 7 -19
13 -21 15 -2 1 15 22 39 47 23 24 49 55 59 69 9 14 50 69 91 123 104 136 140
214 145 314 3 42 34 130 46 130 5 0 9 20 9 45 0 25 -4 45 -10 45 -12 0 -14 57
-2 64 5 3 14 31 21 63 16 72 39 129 59 146 13 10 14 8 8 -18 -5 -16 -10 -54
-13 -82 -3 -29 -9 -53 -14 -53 -5 0 -9 -10 -9 -22 1 -26 24 -61 33 -51 4 3 2
12 -4 19 -6 8 -8 22 -4 31 6 16 8 15 16 -6 8 -19 12 -21 24 -11 8 7 15 25 15
41 0 18 7 32 20 39 11 6 20 17 20 24 0 8 7 16 15 20 9 3 15 18 15 40 0 33 5
49 36 123 8 17 14 35 14 41 0 5 7 12 15 16 8 3 15 14 15 24 0 11 7 25 15 32 8
7 15 20 15 29 0 9 7 26 15 38 9 13 14 39 13 64 -4 50 19 67 24 18 4 -43 26
-50 34 -10 4 17 11 34 15 37 5 3 9 15 9 26 0 21 54 78 73 78 5 0 7 -14 3 -30
-7 -36 14 -122 28 -117 28 9 36 170 10 198 -15 17 -15 22 0 68 14 43 14 54 2
89 -8 21 -17 69 -21 106 -4 36 -9 66 -11 66 -2 0 -22 -13 -46 -29 -47 -32 -58
-30 -103 14 -23 24 -29 25 -115 21 -100 -6 -130 -17 -203 -78 -34 -28 -54 -38
-69 -35 -18 5 -34 0 -78 -25 -8 -4 -22 -11 -30 -14 -84 -32 -211 -137 -422
-348 -104 -104 -200 -205 -213 -225 -12 -20 -34 -49 -49 -66 -34 -39 -35 -64
-1 -57 14 2 25 0 25 -4 0 -5 -14 -38 -31 -74 -18 -36 -38 -80 -46 -97 -7 -18
-19 -48 -27 -65 -38 -88 -49 -121 -70 -217 -16 -69 -29 -107 -40 -113 -10 -5
-22 -22 -29 -36 -11 -27 -11 -26 -15 15 -2 28 2 51 12 65 9 12 16 37 16 54 0
17 7 37 15 44 8 7 15 20 15 29 1 47 105 300 131 317 11 6 12 64 2 64 -19 0
-73 -85 -140 -219 -40 -79 -73 -149 -73 -156 0 -7 -9 -24 -20 -38 -11 -14 -20
-32 -20 -41 0 -8 -6 -19 -13 -23 -7 -4 -26 -33 -41 -63 -35 -69 -41 -75 -73
-75 -22 0 -28 -8 -51 -70 -14 -40 -24 -88 -23 -112 1 -36 -2 -43 -17 -43 -16
0 -21 11 -27 63 -12 91 -9 118 19 203 14 42 26 79 26 82 0 3 -11 -5 -25 -18
-17 -16 -25 -34 -25 -57 0 -19 -7 -42 -16 -50 -11 -12 -14 -27 -10 -53 6 -39
-9 -110 -24 -110 -6 0 -10 -28 -10 -61 0 -45 -6 -71 -21 -95 -11 -19 -24 -34
-27 -34 -4 0 -20 12 -35 26 -20 17 -26 28 -19 37 12 16 25 64 27 107 1 19 8
72 15 117 11 73 11 88 -4 135 -13 42 -14 61 -5 91 6 21 7 52 3 69 l-6 31 -20
-24 c-10 -13 -24 -35 -30 -49 -6 -16 -12 -20 -15 -12 -3 7 2 21 11 31 9 10 16
27 16 40 0 12 7 24 15 27 8 4 15 14 15 24 0 15 36 101 90 216 11 23 20 47 20
53 0 23 -34 6 -58 -29 -13 -19 -32 -39 -43 -44 -10 -5 -19 -16 -19 -24 0 -19
-39 -82 -51 -82 -16 0 -10 30 13 63 13 18 26 34 31 35 4 2 7 15 7 30 0 14 7
33 16 43 9 10 13 23 9 29 -11 17 -54 -27 -77 -77 -10 -23 -23 -45 -28 -48 -6
-3 -10 -17 -10 -29 0 -13 -7 -29 -15 -36 -8 -7 -24 -45 -36 -84 -11 -39 -25
-80 -31 -91 -20 -35 -27 -199 -13 -293 27 -179 83 -290 277 -556 99 -135 123
-193 132 -314 4 -61 2 -91 -4 -87 -6 3 -10 13 -10 21 0 19 -16 18 -24 -2 -10
-26 -7 -38 20 -68 24 -27 26 -28 40 -10 14 18 15 16 10 -23 -6 -40 5 -73 55
-175 5 -10 6 -23 3 -31 -3 -8 2 -20 11 -27 23 -19 18 -30 -13 -30 -17 0 -37
10 -53 28 -29 31 -69 56 -69 43 0 -5 9 -30 20 -56 11 -26 20 -51 20 -56 0 -18
-38 -8 -53 14 l-15 22 -16 -35 c-22 -49 -43 -73 -56 -65 -5 3 -27 -7 -48 -22
-76 -59 -262 -126 -262 -95 0 6 10 14 23 18 25 7 57 33 57 46 0 4 -24 8 -53 8
-29 0 -75 7 -101 16 -41 14 -60 15 -135 5 -103 -13 -238 -15 -245 -2 -8 13 40
31 83 31 24 0 47 8 61 20 13 11 28 20 34 21 6 0 -2 5 -19 10 -17 5 -55 5 -92
0 -44 -7 -74 -6 -105 3 -24 7 -67 16 -95 20 l-53 7 0 -30 c0 -21 7 -34 22 -42
l23 -12 -23 -10 -22 -10 0 -314 c0 -172 3 -313 8 -313 4 0 61 14 127 30 66 16
136 30 155 30 19 0 51 5 70 10 62 19 227 15 305 -8 39 -11 96 -23 128 -26 51
-6 150 -32 217 -58 14 -5 42 -32 63 -59 29 -38 53 -56 106 -80 75 -33 90 -55
71 -103 -12 -32 -51 -52 -121 -60 -31 -4 -77 -18 -104 -32 -27 -13 -62 -24
-79 -24 -37 0 -105 30 -125 54 -13 16 -63 46 -76 46 -3 0 -5 -10 -5 -21 0 -20
-3 -21 -56 -14 -54 6 -57 6 -85 -26 -16 -18 -27 -40 -24 -47 3 -8 -2 -20 -10
-26 -13 -10 -12 -15 13 -41 44 -46 142 -120 197 -150 58 -30 177 -119 219
-164 l30 -31 1101 0 1102 0 66 98 c36 53 97 135 135 182 37 47 73 92 78 101 5
9 41 51 79 92 39 42 80 88 93 102 18 23 28 26 53 21 53 -10 93 -82 70 -125 -6
-11 -31 -36 -55 -56 -43 -35 -44 -37 -50 -108 -7 -86 -16 -157 -22 -176 -3 -9
-9 -7 -22 8 -16 20 -18 21 -39 6 -14 -10 -23 -27 -23 -41 0 -34 -24 -26 -28
10 -2 14 4 46 13 69 18 48 17 148 -1 154 -20 7 -314 -304 -314 -331 0 -3 427
-6 950 -6 l949 0 17 31 c15 29 15 35 -2 77 -16 43 -16 47 2 80 l18 34 66 -4
c51 -4 68 -1 77 11 11 14 12 13 13 -6 0 -12 -4 -25 -10 -28 -5 -3 -10 -21 -10
-39 0 -19 -9 -43 -20 -56 -11 -13 -20 -33 -20 -46 0 -13 -4 -26 -10 -29 -6 -4
-10 8 -10 29 0 20 -5 36 -11 36 -6 0 -9 -17 -7 -42 l3 -43 1873 -3 1872 -2 0
655 c0 604 -1 655 -17 655 -9 0 -57 31 -107 68 -50 37 -133 94 -183 127 -51
32 -93 64 -93 71 0 6 15 23 34 37 39 30 86 123 86 172 0 34 -21 97 -61 183
-22 49 -46 114 -79 217 -12 39 -26 74 -31 80 -5 5 -9 15 -9 23 0 8 -6 28 -14
45 -8 18 -26 64 -41 102 -27 68 -48 118 -85 200 -133 294 -201 429 -275 540
-40 61 -89 140 -109 178 -91 166 -311 377 -480 461 -21 11 -41 27 -43 36 -5
19 -123 112 -181 142 -37 20 -82 57 -82 67 0 16 99 43 168 47 113 6 187 26
187 50 0 20 -20 29 -149 65 -74 21 -143 63 -169 103 -19 28 -22 62 -8 71 10 6
10 165 1 165 -15 0 -30 -27 -30 -53 0 -38 -39 -107 -61 -107 -32 0 -44 27 -29
68 21 57 12 289 -10 266 -5 -5 -16 -40 -26 -79 -9 -38 -18 -76 -20 -82 -2 -7
-12 -13 -23 -13 -16 0 -21 9 -26 58 -8 72 -12 85 -26 77 -5 -4 -25 -7 -43 -7
-28 0 -35 -6 -60 -49 -37 -66 -63 -66 -108 -2 -18 26 -36 54 -39 63 -3 8 -14
15 -24 15 -10 0 -23 8 -29 17 -8 14 -5 23 17 46 31 32 33 48 13 97 -21 50 -43
45 -52 -10 -3 -25 -4 -56 -2 -70 7 -36 -14 -50 -49 -31 -15 8 -50 25 -77 38
-48 23 -48 23 -42 63 15 94 18 193 8 211 -10 17 -11 15 -12 -13z m71 -565 c30
-49 48 -101 52 -153 3 -28 -17 -31 -21 -3 -2 12 -14 36 -27 52 -26 36 -40 73
-36 100 1 10 -3 22 -9 26 -11 7 -7 30 5 30 2 0 18 -24 36 -52z m374 -8 c0 -13
-6 -25 -12 -27 -16 -6 -27 21 -19 43 9 23 31 11 31 -16z m135 -1 c0 -11 -4
-17 -10 -14 -5 3 -10 13 -10 21 0 8 5 14 10 14 6 0 10 -9 10 -21z m-4814 -314
c-19 -28 -31 -32 -40 -10 -3 9 5 20 22 29 34 18 39 13 18 -19z m4539 -132 c33
-16 50 -53 24 -53 -15 0 -51 -29 -131 -106 -37 -35 -72 -64 -78 -64 -20 0 -10
71 18 121 27 52 95 119 118 119 8 0 29 -8 49 -17z m-100 -282 c3 -5 18 -9 33
-9 15 0 43 -8 62 -19 35 -19 35 -19 53 1 18 21 18 20 13 -39 -2 -33 -10 -94
-17 -135 -6 -41 -11 -134 -10 -205 3 -152 -10 -200 -68 -252 -20 -18 -39 -32
-44 -33 -11 0 -57 109 -57 139 0 14 -7 35 -15 45 -17 22 -20 112 -5 121 19 12
11 37 -9 30 -24 -7 -51 37 -51 84 0 42 53 95 81 81 33 -18 51 -56 44 -90 -8
-35 12 -42 37 -12 25 29 28 51 16 125 -15 98 -31 127 -68 127 -32 0 -45 13
-36 35 6 17 32 20 41 6z m-4652 -107 c-14 -22 -19 -25 -21 -11 -2 9 4 24 12
33 9 8 17 23 17 32 1 11 3 9 6 -5 2 -12 -4 -34 -14 -49z m3920 -38 c18 -4 27
-13 27 -26 0 -11 -3 -20 -7 -20 -5 0 -92 -3 -195 -5 -186 -6 -225 0 -176 26
66 35 209 58 273 43 28 -7 62 -15 78 -18z m-4040 -20 c-22 -30 -33 -33 -33 -7
0 19 43 55 48 40 2 -4 -5 -20 -15 -33z m-83 -93 c0 -10 3 -28 6 -39 4 -17 -2
-26 -31 -44 -26 -16 -33 -25 -26 -34 12 -14 -47 -196 -72 -224 -8 -9 -17 -28
-19 -41 -1 -14 -8 -26 -15 -28 -15 -5 -12 53 5 84 7 12 12 35 12 51 0 21 6 31
20 35 12 3 20 14 20 25 0 12 5 24 10 27 6 3 7 23 4 43 -5 32 0 46 30 92 20 30
36 58 36 62 0 5 5 8 10 8 6 0 10 -8 10 -17z m138 -10 c2 -12 -3 -37 -12 -55
-8 -18 -16 -44 -18 -57 -5 -37 -22 -36 -36 2 -17 46 -15 57 8 57 18 0 20 4 14
41 -7 39 -6 41 17 37 16 -2 25 -11 27 -25z m504 -55 c-9 -9 -12 -7 -12 12 0
19 3 21 12 12 9 -9 9 -15 0 -24z m-592 -60 c0 -7 3 -23 6 -35 5 -17 2 -23 -10
-23 -11 0 -16 -9 -16 -30 0 -37 5 -38 24 -2 15 27 15 27 16 -24 0 -39 -6 -60
-25 -88 -14 -20 -25 -41 -25 -45 0 -5 -11 -16 -25 -25 -20 -13 -29 -14 -44 -5
-20 13 -18 39 6 74 7 11 13 28 13 38 0 9 7 20 15 23 10 4 15 20 15 45 0 28 4
39 15 39 10 0 15 11 15 35 0 19 5 35 10 35 6 0 10 -6 10 -12z m780 -28 c0 -16
-4 -30 -9 -30 -13 0 -21 27 -15 45 10 25 24 17 24 -15z m-1020 -17 c0 -10 -4
-24 -9 -31 -7 -11 -9 -11 -14 2 -7 19 1 46 14 46 5 0 9 -8 9 -17z m660 -219
c0 -8 -4 -14 -10 -14 -5 0 -10 9 -10 21 0 11 5 17 10 14 6 -3 10 -13 10 -21z
m-545 -46 c-4 -18 -18 -55 -31 -81 -13 -27 -24 -56 -24 -66 0 -9 -7 -26 -15
-37 -14 -17 -14 -15 -9 26 4 25 13 54 20 65 8 11 14 27 14 36 0 9 7 19 15 23
9 3 15 18 15 36 0 16 5 30 11 30 7 0 8 -12 4 -32z m515 -23 c0 -14 -4 -25 -10
-25 -5 0 -10 11 -10 25 0 14 5 25 10 25 6 0 10 -11 10 -25z m-650 -52 c-10
-16 -11 -15 -6 7 3 14 6 34 7 45 1 13 3 11 6 -7 2 -15 -1 -35 -7 -45z m623 3
c7 -19 -21 -99 -39 -109 -8 -4 -14 -14 -14 -22 0 -8 -9 -19 -20 -25 -11 -6
-20 -19 -20 -30 0 -10 -4 -22 -10 -25 -6 -3 -10 5 -10 19 0 14 5 28 10 31 6 3
10 14 10 23 0 10 16 41 35 71 19 29 35 59 35 67 0 18 16 18 23 0z m-642 -306
c-17 -22 -31 -45 -31 -53 0 -8 -6 -20 -14 -26 -8 -7 -17 -23 -20 -36 -4 -14
-11 -25 -17 -25 -13 0 -3 36 19 70 28 42 36 56 61 101 19 33 26 40 29 26 2
-11 -10 -36 -27 -57z m5264 -350 c27 -30 71 -76 97 -101 27 -26 48 -49 48 -52
0 -3 -35 -52 -77 -110 -43 -58 -96 -131 -117 -161 -22 -31 -43 -56 -48 -56 -4
0 -8 -7 -8 -15 0 -8 -4 -15 -10 -15 -13 0 -13 33 1 47 6 6 9 18 7 28 -2 12
-16 1 -48 -39 -25 -30 -49 -55 -54 -56 -21 -1 39 192 75 238 10 13 21 43 25
67 5 39 36 84 53 78 3 -2 6 22 6 52 0 42 -5 59 -23 78 -19 20 -22 32 -18 73 2
27 5 51 5 54 1 3 10 -9 19 -25 9 -17 39 -55 67 -85z m-4759 -38 c-8 -20 -21
-66 -31 -102 -10 -36 -23 -85 -30 -110 -7 -25 -16 -63 -20 -84 -13 -77 -103
-286 -152 -353 -13 -17 -23 -35 -23 -38 0 -16 -58 -80 -98 -107 -41 -28 -46
-30 -57 -14 -7 9 -19 14 -29 10 -22 -9 -20 2 8 39 13 18 31 50 40 71 9 22 25
45 35 53 49 34 143 195 180 309 23 69 108 251 122 260 5 3 9 16 9 29 0 13 5
27 11 30 5 4 14 18 20 32 5 13 13 21 19 18 6 -4 4 -20 -4 -43z m-365 -315 c-8
-8 -11 -7 -11 4 0 9 3 19 7 23 4 4 9 2 11 -4 3 -7 -1 -17 -7 -23z m3489 -460
c0 -13 -10 -32 -21 -43 l-21 -19 7 35 c9 42 13 50 26 50 5 0 9 -11 9 -23z
m-3486 -106 c6 -9 -84 -22 -94 -14 -2 2 2 8 10 13 19 12 77 13 84 1z m-133
-42 c-16 -6 -28 -6 -35 1 -7 7 1 10 25 9 32 0 33 -1 10 -10z m-61 -18 c0 -12
-26 -21 -58 -21 -26 1 -26 1 -8 15 22 16 66 20 66 6z m-220 -171 c0 -11 -4
-20 -10 -20 -5 0 -10 9 -10 20 0 11 5 20 10 20 6 0 10 -9 10 -20z m4545 -430
c-19 -21 -45 -27 -45 -11 0 10 52 40 59 34 2 -1 -4 -12 -14 -23z m-2257 -701
c-1 -13 -7 -23 -13 -22 -13 3 -18 30 -11 50 10 24 29 1 24 -28z"/>
<path d="M6805 3400 c-3 -5 -3 -15 1 -21 6 -11 23 6 24 24 0 10 -18 9 -25 -3z"/>
<path d="M1743 1560 c-13 -5 -23 -16 -23 -25 0 -21 29 -19 37 3 4 9 11 20 17
24 15 10 -4 9 -31 -2z"/>
<path d="M1948 4513 c-10 -2 -18 -9 -18 -14 0 -5 -10 -7 -22 -4 -27 7 -64 -17
-54 -33 5 -8 17 -8 44 2 20 8 52 18 70 22 19 5 34 14 35 19 2 11 -28 16 -55 8z"/>
<path d="M5730 4420 c0 -13 5 -20 13 -17 6 2 12 10 12 17 0 7 -6 15 -12 18 -8
2 -13 -5 -13 -18z"/>
<path d="M3043 4197 c-1 -56 -2 -110 -2 -120 -1 -10 -12 -22 -25 -27 -28 -10
-36 -39 -33 -120 2 -30 -2 -61 -8 -69 -5 -8 -13 -68 -16 -135 -8 -155 -40
-269 -95 -343 -13 -17 -24 -36 -24 -41 0 -15 -100 -211 -111 -218 -19 -11 -9
-52 13 -57 24 -7 41 3 21 10 -18 6 -16 33 1 33 8 0 16 -7 20 -15 4 -12 9 -11
28 8 34 32 88 103 88 115 0 6 4 12 8 14 5 2 25 39 46 83 21 44 45 92 52 107 8
14 14 40 14 56 0 17 5 34 10 37 6 3 10 20 10 36 0 18 -4 28 -10 24 -5 -3 -10
-17 -10 -31 0 -14 -6 -27 -14 -30 -8 -3 -18 -19 -21 -35 -4 -16 -11 -29 -17
-29 -12 0 -7 29 16 110 9 30 16 67 16 81 0 15 7 32 15 39 11 9 13 26 8 75 -3
37 -1 76 5 92 6 15 13 48 17 74 5 43 25 73 69 103 26 18 31 95 12 174 -15 67
-38 102 -65 102 -13 0 -16 -16 -18 -103z m-97 -825 c-12 -11 -17 7 -9 34 l8
29 3 -28 c2 -16 1 -31 -2 -35z m-24 -47 c-2 -14 -8 -25 -13 -25 -5 0 -9 -6 -9
-14 0 -8 -6 -21 -12 -28 -17 -19 -36 -48 -48 -75 -5 -13 -14 -23 -19 -23 -5 0
-11 -10 -13 -22 -2 -12 -9 -23 -15 -26 -19 -6 -16 47 2 54 8 4 15 12 15 19 0
8 6 20 13 27 7 7 16 20 20 28 4 8 13 24 20 35 7 11 21 35 30 53 20 37 37 35
29 -3z"/>
<path d="M2997 4215 c-3 -22 -9 -56 -13 -75 l-7 -35 22 24 c21 25 24 43 12 96
l-7 30 -7 -40z"/>
<path d="M1867 4183 c-12 -12 -7 -22 8 -17 8 4 15 10 15 15 0 11 -14 12 -23 2z"/>
<path d="M1952 4132 c-13 -10 -20 -21 -16 -25 12 -12 21 -8 38 18 19 29 11 32
-22 7z"/>
<path d="M1566 4005 c-9 -13 -16 -31 -16 -40 0 -8 -7 -15 -15 -15 -8 0 -15 -4
-15 -10 0 -5 7 -10 15 -10 8 0 15 5 15 10 0 6 6 10 13 10 7 0 33 18 57 40 l44
40 -41 0 c-32 0 -44 -5 -57 -25z"/>
<path d="M927 3913 c-4 -3 -7 -15 -7 -25 0 -14 8 -18 31 -18 24 0 30 3 25 16
-3 9 -6 20 -6 25 0 10 -33 12 -43 2z"/>
<path d="M4790 3649 c-25 -4 -73 -6 -107 -2 -56 5 -62 3 -73 -17 -6 -12 -10
-24 -7 -26 2 -3 47 -15 99 -28 159 -39 163 -51 21 -67 -118 -14 -223 -31 -251
-40 -31 -12 -105 -86 -97 -99 9 -15 27 -12 70 11 37 20 55 22 235 23 107 0
219 -3 248 -7 50 -7 53 -6 62 17 5 13 18 27 29 31 16 5 19 14 18 58 l-2 52
-40 5 c-30 4 -41 10 -43 25 -3 22 -54 59 -92 67 -14 3 -45 1 -70 -3z"/>
<path d="M3691 3465 c-35 -41 -39 -74 -12 -99 11 -10 25 -31 31 -47 24 -57 49
-26 57 70 5 60 3 74 -12 91 -24 27 -28 26 -64 -15z"/>
<path d="M2725 3437 c-4 -10 -5 -21 -1 -24 10 -10 18 4 13 24 -4 17 -4 17 -12
0z"/>
<path d="M623 3298 c2 -7 10 -13 17 -13 7 0 15 6 18 13 2 7 -5 12 -18 12 -13
0 -20 -5 -17 -12z"/>
<path d="M2996 3293 c-15 -41 -76 -121 -152 -197 -16 -17 -51 -58 -76 -91 -26
-33 -94 -106 -152 -163 -58 -57 -106 -107 -106 -113 0 -13 18 -11 36 4 31 24
444 437 444 442 0 4 11 21 25 39 14 18 25 40 25 49 0 43 -31 64 -44 30z"/>
<path d="M4113 3263 c-8 -3 -13 -23 -13 -48 0 -38 4 -47 39 -74 48 -38 55 -39
48 -3 -22 109 -40 140 -74 125z"/>
<path d="M3730 3187 c-41 -19 -70 -42 -96 -78 -31 -43 -32 -69 -1 -69 13 0 45
-7 71 -16 52 -18 66 -12 66 29 0 10 11 43 25 73 14 30 25 59 25 64 0 13 -59
11 -90 -3z"/>
<path d="M5515 3050 c-3 -5 5 -25 19 -43 33 -43 32 -49 -4 -102 -31 -45 -56
-58 -140 -71 -35 -5 -55 -16 -90 -51 -75 -76 -137 -84 -204 -30 -67 55 -96 66
-124 48 -12 -7 -11 -14 2 -39 20 -39 20 -62 0 -62 -25 0 -74 -39 -74 -60 0
-35 12 -50 40 -50 16 0 32 -5 35 -10 4 -6 15 -8 25 -5 12 4 19 -1 22 -13 5
-16 17 -20 74 -24 38 -2 87 0 109 4 22 5 63 7 90 4 28 -4 56 -2 64 3 8 5 23 3
40 -5 34 -18 47 -18 55 2 5 14 15 15 52 10 59 -8 66 -13 53 -37 -7 -15 -7 -24
2 -35 9 -11 7 -19 -15 -39 -14 -13 -34 -29 -43 -34 -59 -34 168 17 241 54 27
14 58 25 68 25 21 0 25 29 6 48 -18 18 -98 15 -119 -4 -40 -36 -76 11 -63 82
3 19 2 40 -4 47 -24 30 -53 137 -46 171 10 54 25 62 88 44 l53 -15 -6 26 c-8
28 -162 171 -185 171 -8 0 -18 -4 -21 -10z"/>
<path d="M4820 2937 c-225 -218 -272 -311 -214 -427 27 -53 35 -57 74 -35 14
8 28 14 33 15 11 0 8 -35 -4 -47 -18 -18 3 -21 70 -11 60 9 67 8 131 -21 106
-49 141 -39 96 29 -32 48 -94 80 -154 80 l-44 0 6 33 c3 17 15 38 26 46 25 17
26 41 1 41 -11 0 -30 13 -44 30 -22 26 -24 33 -15 69 6 23 30 62 60 95 48 54
68 96 68 143 0 36 -20 27 -90 -40z m0 -322 c0 -8 -7 -15 -15 -15 -16 0 -20 12
-8 23 11 12 23 8 23 -8z"/>
<path d="M2727 2839 c-67 -67 -138 -131 -157 -144 -19 -12 -52 -37 -73 -56
-21 -19 -53 -40 -70 -46 -30 -12 -28 -13 26 -7 48 5 57 3 57 -11 0 -19 88 -62
145 -70 51 -8 143 24 169 58 26 35 35 100 25 174 -8 59 -4 110 17 196 4 18 2
27 -5 27 -7 0 -67 -54 -134 -121z"/>
<path d="M5792 2780 c7 -11 21 -20 32 -20 18 0 19 1 1 20 -10 11 -24 20 -32
20 -11 0 -11 -4 -1 -20z"/>
<path d="M5868 2655 c-7 -9 -23 -28 -35 -41 -13 -14 -23 -29 -23 -33 0 -11 26
-21 55 -21 13 0 26 -4 29 -9 5 -8 68 8 81 21 9 8 -59 92 -77 96 -9 2 -22 -4
-30 -13z"/>
<path d="M2420 2479 c-14 -5 -31 -18 -38 -29 -11 -19 -10 -20 22 -20 18 0 50
7 71 15 30 13 35 18 25 30 -14 17 -42 18 -80 4z"/>
<path d="M2516 2430 c-13 -40 -25 -94 -21 -100 3 -4 16 -10 30 -12 24 -5 25
-3 25 41 0 50 -24 100 -34 71z"/>
<path d="M2630 2283 c0 -15 67 -83 83 -83 16 0 5 40 -19 69 -28 34 -64 42 -64
14z"/>
<path d="M920 1904 c-19 -50 -4 -112 30 -121 11 -3 20 -13 20 -22 0 -20 40
-61 58 -61 17 0 15 13 -6 41 -28 37 -42 77 -42 115 0 68 -40 100 -60 48z"/>
<path d="M5140 1850 c0 -21 36 -60 57 -60 19 0 16 9 -13 47 -28 37 -44 42 -44
13z"/>
<path d="M745 1831 c-6 -11 9 -23 19 -14 9 9 7 23 -3 23 -6 0 -12 -4 -16 -9z"/>
<path d="M226 76 c4 -11 -3 -13 -33 -9 -28 4 -42 1 -52 -11 -11 -13 -11 -16 0
-16 8 0 25 -9 39 -20 21 -16 41 -20 125 -20 113 0 114 5 11 59 -64 34 -99 40
-90 17z"/>
</g>
</svg>
